<svg width="137" height="86" viewBox="0 0 137 86" fill="none" xmlns="http://www.w3.org/2000/svg">
<path fill-rule="evenodd" clip-rule="evenodd" d="M50.4882 58.7633V59.7165V63.3935H54.3454V60.5337H57.1006H59.9246V63.3935H63.5063V51.6817H59.9246C54.3454 51.8179 50.4882 53.3159 50.4882 58.7633ZM59.9246 57.7419H57.1006H54.3454C54.3454 54.5416 56.5495 54.4735 59.9246 54.6778V57.7419ZM68.5344 0H70.5319V0.0680856C88.8537 0.340453 105.453 4.63024 117.438 12.0523C129.561 19.5424 137 30.1647 137 43.034C137 55.9034 129.561 66.5257 117.438 74.0158C105.453 81.3017 88.8537 85.5914 70.4631 85.9319V86H68.4656C63.4374 86 58.547 85.6595 53.7255 85.1148C48.8351 84.502 44.1513 83.6168 39.7431 82.4592C27.827 79.2589 17.7019 74.0839 10.6762 67.1385C3.92609 60.5336 0 52.3626 0 43.034C0 33.7055 3.92609 25.6025 10.6762 18.9295C17.7019 12.0523 27.827 6.80919 39.7431 3.60887C44.1513 2.45131 48.8351 1.49802 53.7255 0.953282C58.547 0.272363 63.5063 0 68.5344 0ZM41.6028 42.5574H42.4982V36.8377C50.9703 37.042 57.5138 39.7656 57.5138 43.1702C57.5138 46.5748 50.9703 49.3666 42.4982 49.5709V45.1449H41.6028H38.7099V49.4347C31.2021 48.8899 25.6229 46.3025 25.6229 43.1702C25.6229 40.038 31.2021 37.4505 38.7099 36.9058V42.5574H41.6028ZM43.0493 22.6746C43.0493 19.1338 50.0749 16.2739 59.0292 16.2739C62.1287 16.2739 65.0216 16.6144 67.3635 17.2272C71.9095 18.3167 74.9402 20.3595 74.9402 22.6746C74.9402 24.9897 71.9095 27.0325 67.3635 28.1219C64.9527 28.7348 62.1287 29.0752 59.0292 29.0752C50.1438 29.0071 43.0493 26.2154 43.0493 22.6746ZM66.537 3.88123C62.2665 3.94932 58.2026 4.22169 54.2076 4.76643C49.5239 5.37926 45.0468 6.19636 40.7763 7.35392C29.4801 10.35 20.0437 15.2526 13.5003 21.6532C7.50779 27.5772 3.99497 34.7949 3.99497 42.966C3.99497 51.2051 7.50779 58.4228 13.5003 64.3468C15.7733 66.5257 18.3218 68.5685 21.2147 70.407V43.1702C21.2147 38.0633 28.7225 33.9778 38.7099 33.365V22.6065C38.7099 20.6999 39.7431 18.9976 41.5339 17.4996C45.0468 14.5717 51.4525 12.6651 58.8914 12.6651C61.9221 12.6651 64.815 13.0055 67.3635 13.5503C74.3203 15.1164 79.0729 18.521 79.0729 22.6065C79.0729 26.692 74.3203 30.0966 67.3635 31.6627C64.815 32.2074 61.9221 32.5479 58.8914 32.5479C52.0724 32.5479 46.1488 30.8456 42.4982 28.4624V33.2288C53.3122 33.5012 61.7154 37.791 61.7154 43.1021C61.7154 48.4814 53.3122 52.7712 42.4982 53.0436V59.1718C42.4982 59.9208 42.7738 60.5337 43.6003 60.5337H48.3529V63.3935H41.6717H41.6028C39.8808 63.3935 38.7099 62.0317 38.7099 60.5337V52.9074C33.0618 52.5669 28.1714 51.0008 25.003 48.8899V72.4497C29.6868 74.901 34.9904 76.9438 40.7763 78.5099C45.0468 79.6675 49.5928 80.4846 54.2076 81.0974C58.1337 81.574 62.2665 81.8464 66.4681 81.9145H68.4656C86.8562 81.9145 103.456 77.829 115.303 70.5431C126.255 63.8021 133.005 54.2692 133.005 42.8979C133.005 31.5265 126.255 21.9937 115.303 15.2526C103.525 7.96674 86.8562 3.81314 68.5344 3.81314L66.537 3.88123ZM91.6088 51.6817H95.1217V63.3935H91.6088V51.6817ZM73.0116 56.2439C78.8663 56.1077 79.1418 63.8021 72.736 63.5297H66.2614V60.6698H72.8738C74.2514 60.6017 74.3891 59.1718 72.8049 59.1718H69.9809C67.2946 59.1718 65.366 58.2185 65.366 55.7672C65.366 53.4521 67.1569 51.886 69.8431 51.886H76.3177V54.7458H69.7054C68.3278 54.7458 68.3278 56.312 69.6365 56.312H73.0116M100.081 57.7419C100.081 59.6485 101.527 60.8741 104.765 60.8741H107.933V63.734H104.283C99.1166 63.5978 96.8436 61.2827 96.8436 57.7419C96.8436 54.2692 99.1166 51.886 104.283 51.7498H107.933V54.6097H104.765C101.527 54.6097 100.081 55.8353 100.081 57.7419ZM78.5908 51.8179H89.6802V54.6778H86.0297V63.4616H82.5168V54.6778H78.6596V51.8179H78.5908ZM101.527 37.042C102.974 37.042 104.42 36.9058 104.42 33.9097V31.1861H107.933V33.9097C107.933 36.5653 107.038 39.6976 103.249 39.7656V42.8298H101.459H99.6677V39.7656C95.9482 39.6976 94.9839 36.4972 94.9839 33.9097V31.1861H98.4967V33.9097C98.6345 36.9058 100.081 36.9739 101.527 37.042ZM89.0603 38.6081C89.0603 39.4252 89.1981 39.9699 90.0246 39.9699H95.5349V42.8979H88.4404C86.6496 42.8979 85.4786 41.536 85.4786 39.9699V31.1861H88.9915V38.6081M75.1468 43.5107C79.6928 43.5107 83.3434 40.5827 83.3434 37.1781C83.3434 33.7055 79.6928 30.7775 75.1468 30.7775C70.6697 30.7775 66.9502 33.6374 66.9502 37.1781C66.9502 40.6508 70.6697 43.5107 75.1468 43.5107ZM75.2157 33.7055C77.7642 33.7055 79.8306 35.2716 79.8306 37.1781C79.8306 39.0847 77.7642 40.6508 75.2157 40.6508C72.6672 40.6508 70.6008 39.0847 70.6008 37.1781C70.5319 35.2716 72.6672 33.7055 75.2157 33.7055Z" fill="white"/>
</svg>
