<svg width="178" height="47" viewBox="0 0 178 47" fill="none" xmlns="http://www.w3.org/2000/svg">
<path fill-rule="evenodd" clip-rule="evenodd" d="M0.865723 0.514648H47.3876V46.8646H0.865723V0.514648ZM37.5924 6.68718C37.9957 5.83796 38.8054 5.13129 39.8745 5.13129C41.2765 5.06099 42.5282 6.13079 42.6354 7.72237C42.6354 7.94452 42.5251 8.71736 42.4489 8.90013L37.0389 17.6652C36.4889 18.5903 36.5894 19.2942 36.8151 20.0703L44.9922 40.9167H11.4442C8.45972 40.9167 6.13374 38.5152 6.13374 35.5176L6.02181 7.94553C6.13465 4.28432 11.258 4.28241 11.4442 7.83395V33.8129C11.4442 34.6312 12.1752 35.5176 13.061 35.5176H37.667L31.3305 20.436C31.1133 19.9552 31.032 19.4335 31.032 18.8429C31.032 18.1821 31.3285 17.1838 31.7347 16.2952L37.5924 6.68718ZM23.9617 7.83395C23.9617 6.05818 25.2762 5.15248 26.5921 5.14369C27.908 5.1349 29.2287 6.02303 29.2287 7.83395V26.5728C29.2287 30.8582 26.028 33.7075 22.09 33.7075C18.2565 33.7075 15.0446 30.8582 15.0446 26.5728V7.83395C15.0446 4.28241 20.3178 4.28241 20.3178 7.83395V26.424C20.3178 28.9014 23.9617 29.1235 23.9617 26.424V7.83395Z" fill="white"/>
<path d="M56.5018 5.96191V18.225C56.5018 21.2901 56.1887 22.9941 53.6837 22.9941C53.2155 22.9941 52.9023 22.9941 52.4341 22.8254V28.1035C53.3706 28.4466 53.9968 28.4466 54.7811 28.4466C61.822 28.4466 62.1351 23.1657 62.1351 20.0978V11.2428H66.2028V28.1035H71.8333V5.96191H56.5018Z" fill="white"/>
<path d="M73.7124 5.96191L81.3795 21.9734L78.5643 28.1035H84.6659L93.7406 5.96191H87.6391L84.3527 15.3286L80.4402 5.96191H73.7124Z" fill="white"/>
<path d="M95.4608 28.1035H101.094V18.5652L106.883 28.1035H114.079L106.101 16.6925L113.923 5.96191H107.196L101.094 15.3286V5.96191H95.4608V28.1035Z" fill="white"/>
<path d="M123.312 28.7864C130.821 28.7864 134.262 22.9937 134.262 17.0323C134.262 11.2424 130.821 5.44971 123.312 5.44971C115.958 5.44971 112.516 11.2424 112.516 17.0323C112.516 22.9937 115.958 28.7864 123.312 28.7864ZM123.312 23.5055C120.807 23.5055 118.305 21.2896 118.305 17.0323C118.305 12.7749 120.807 10.7306 123.312 10.7306C125.972 10.7306 128.474 12.7749 128.474 17.0323C128.474 21.2896 125.972 23.5055 123.312 23.5055Z" fill="white"/>
<path d="M137.081 5.96141V28.103H142.556L150.378 14.8192V28.103H155.856V5.96141H150.378L142.556 19.2481V5.96141H137.081ZM146.624 4.76913C148.971 4.76913 151.318 3.9171 152.415 1.361L149.129 0C148.658 1.70406 147.25 1.87278 146.624 1.87278C146.155 1.87278 144.59 1.70406 144.277 0L140.993 1.361C141.93 3.9171 144.435 4.76913 146.624 4.76913Z" fill="white"/>
<path d="M161.803 5.96191V18.225C161.803 21.2901 161.487 22.9941 158.985 22.9941C158.516 22.9941 158.203 22.9941 157.732 22.8254V28.1035C158.671 28.4466 159.298 28.4466 160.079 28.4466C167.12 28.4466 167.433 23.1657 167.433 20.0978V11.2428H171.501V28.1035H177.134V5.96191H161.803Z" fill="white"/>
<path d="M52.4795 40.5291H53.2722V36.4208H57.9012V40.5291H58.6939V32.4756H57.9012V35.774H53.2722V32.4756H52.4795V40.5291Z" fill="white"/>
<path d="M60.7107 40.5291H65.052V39.8824H61.5034V36.3421H64.911V35.6953H61.5034V33.1252H65.052V32.4756H60.7107V40.5291Z" fill="white"/>
<path d="M70.276 40.5295H71.0602V39.4216H71.3902C74.0024 39.4216 75.0828 37.8806 75.0828 36.2665C75.0828 34.3769 73.6808 33.1255 71.3902 33.1255H71.0602V32.1582H70.276V33.1255H69.9572C67.6526 33.1255 66.2534 34.3769 66.2534 36.2665C66.2534 37.8806 67.3338 39.4216 69.9572 39.4216H70.276V40.5295ZM71.0602 33.7723C73.6808 33.806 74.2562 35.0264 74.2562 36.2665C74.2562 38.2012 72.9671 38.7045 71.0602 38.772V33.7723ZM70.276 38.772C68.3691 38.7045 67.0799 38.2012 67.0799 36.2665C67.0799 35.0264 67.6526 33.806 70.276 33.7723V38.772Z" fill="white"/>
<path d="M77.9467 40.5291H78.7084V33.1252H80.8579V32.4756H75.8V33.1252H77.9467V40.5291Z" fill="white"/>
<path d="M81.7946 40.5291H82.686L84.8355 36.9916H85.5182V40.5291H86.3137V32.4756H84.4491C82.0034 32.4756 81.6508 34.0925 81.6508 34.8067C81.6508 36.1677 82.7199 36.9916 83.978 36.9466L81.7946 40.5291ZM85.5182 36.3421H84.3729C83.7241 36.3421 82.435 36.2661 82.435 34.728C82.435 33.2348 83.8003 33.1252 84.4491 33.1252H85.5182V36.3421Z" fill="white"/>
<path d="M88.3416 40.5291H89.1342V36.4208H93.7633V40.5291H94.5559V32.4756H93.7633V35.774H89.1342V32.4756H88.3416V40.5291Z" fill="white"/>
<path d="M95.7128 40.5292H96.5083L97.6197 37.9141H101.024L102.139 40.5292H102.931L99.3066 32.2676L95.7128 40.5292ZM97.9074 37.2785L99.3066 33.9829L100.74 37.2785H97.9074Z" fill="white"/>
<path d="M103.847 40.5291H104.739L106.888 36.9916H107.571V40.5291H108.364V32.4756H106.502C104.056 32.4756 103.704 34.0925 103.704 34.8067C103.704 36.1677 104.773 36.9916 106.028 36.9466L103.847 40.5291ZM107.571 36.3421H106.426C105.774 36.3421 104.485 36.2661 104.485 34.728C104.485 33.2348 105.853 33.1252 106.502 33.1252H107.571V36.3421Z" fill="white"/>
<path d="M113.072 40.5291H113.864V36.6289L117.489 40.5291H118.525L114.612 36.3758L118.46 32.4756H117.489L113.864 36.2324V32.4756H113.072V40.5291Z" fill="white"/>
<path d="M123.639 40.7823C126.043 40.7823 128.014 39.0585 128.014 36.5193C128.014 33.9829 126.043 32.2676 123.639 32.2676C121.27 32.2676 119.298 33.9829 119.298 36.5193C119.298 39.0585 121.27 40.7823 123.639 40.7823ZM123.639 40.1018C121.667 40.1018 120.124 38.6283 120.124 36.5193C120.124 34.4103 121.667 32.9059 123.639 32.9059C125.614 32.9059 127.188 34.4103 127.188 36.5193C127.188 38.6283 125.614 40.1018 123.639 40.1018Z" fill="white"/>
<path d="M129.106 40.5295H129.867L130.615 34.5849L133.591 40.8922L136.533 34.5849L137.328 40.5295H138.042L136.931 32.1582L133.591 39.3541L130.217 32.1582L129.106 40.5295Z" fill="white"/>
<path d="M139.531 32.4756V40.5291H140.324V33.1252H144.953V40.5291H145.746V32.4756H139.531Z" fill="white"/>
<path d="M146.905 40.5292H147.698L148.809 37.9141H152.217L153.328 40.5292H154.121L150.496 32.2676L146.905 40.5292ZM149.097 37.2785L150.496 33.9829L151.929 37.2785H149.097Z" fill="white"/>
<path d="M155.247 40.5291H156.04V36.4208H160.669V40.5291H161.464V32.4756H160.669V35.774H156.04V32.4756H155.247V40.5291Z" fill="white"/>
<path d="M163.479 32.476V40.8922L169.013 34.1575V40.5295H169.794V32.1582L164.274 38.8479V32.476H163.479Z" fill="white"/>
<path d="M171.58 40.5291H172.471L174.621 36.9916H175.303V40.5291H176.099V32.4756H174.237C171.789 32.4756 171.436 34.0925 171.436 34.8067C171.436 36.1677 172.505 36.9916 173.763 36.9466L171.58 40.5291ZM175.303 36.3421H174.158C173.509 36.3421 172.22 36.2661 172.22 34.728C172.22 33.2348 173.586 33.1252 174.237 33.1252H175.303V36.3421Z" fill="white"/>
</svg>
