<svg width="204" height="78" viewBox="0 0 204 78" fill="none" xmlns="http://www.w3.org/2000/svg">
<path d="M77.158 41.8692C77.2476 41.69 77.3372 41.5556 77.382 41.4212C77.942 39.5842 78.502 37.7249 79.0845 35.888C79.4429 34.7455 79.8909 33.6255 80.2494 32.5054C80.6078 31.4077 80.8766 30.31 81.2126 29.2124C81.5935 27.9803 82.0191 26.793 82.4223 25.5609C82.8927 24.06 83.3408 22.5367 83.856 21.0582C84.3264 19.6693 84.9089 18.3028 85.4017 16.9139C85.6481 16.2195 85.7377 15.4578 85.9617 14.741C86.4994 12.9937 87.037 11.2239 87.5971 9.49903C88.3139 7.28128 89.0755 5.06354 89.7924 2.82339C90.0388 2.08414 90.2404 1.34489 90.4869 0.628041C90.6213 0.180011 90.9349 0.023192 91.3829 0.0455935C92.503 0.067995 93.6231 0.112809 94.7431 0.112809C98.193 0.0904075 101.62 0.0455935 105.07 0.0455935C108.072 0.0455935 111.051 0.0904075 114.053 0.112809C115.756 0.13521 117.458 0.090402 119.138 0.135205C123.439 0.247213 127.741 -0.08881 132.064 0.0231975C136.388 0.112804 140.689 0.0455935 145.012 0.0455935C149.336 0.0455935 153.637 0.0455935 157.96 0.0455935C158.789 0.0455935 159.618 0.0456018 160.424 0.0680033C161.164 0.0904048 161.388 0.359215 161.186 1.05366C160.581 3.0698 159.931 5.08593 159.304 7.10207C159.103 7.77411 158.879 8.42377 158.655 9.07341C157.826 11.4704 156.974 13.8673 156.19 16.2643C154.891 20.2294 153.614 24.2168 152.337 28.2043C151.822 29.8172 151.262 31.4301 150.747 33.043C150.366 34.2079 150.075 35.4176 149.694 36.5825C149.224 38.061 148.708 39.5171 148.193 40.9955C148.126 41.2196 147.879 41.3764 147.745 41.578C147.7 41.6452 147.745 41.7572 147.745 41.9364C124.268 41.8692 100.724 41.8692 77.158 41.8692ZM123.148 2.08414C118.892 1.83772 114.636 1.90492 110.447 2.84578C108.811 3.22661 107.221 3.76425 105.63 4.25709C103.435 4.95153 101.329 5.89239 99.3578 7.07967C97.0729 8.44616 94.8551 9.87986 93.1078 11.9408C91.6965 13.5985 90.5316 15.3458 89.8596 17.4292C89.2324 19.3557 88.986 21.3718 89.3668 23.3208C89.7924 25.6281 90.5541 27.8907 92.279 29.6828C93.2422 30.6909 94.1831 31.7213 95.2136 32.6398C96.0424 33.3566 96.9609 33.9615 97.9017 34.5439C99.2234 35.3728 100.545 36.224 101.934 36.9185C103.099 37.4785 104.331 37.8817 105.563 38.2626C107.355 38.8226 109.17 39.3826 111.007 39.7635C113.336 40.2339 115.689 40.6147 118.041 40.8611C119.542 41.0179 121.087 41.0179 122.588 40.8611C124.179 40.7043 125.747 40.2787 127.315 39.9875C128.48 39.7859 129.645 39.6515 130.787 39.405C131.84 39.181 132.893 38.845 133.923 38.509C134.461 38.3298 134.976 38.1058 135.514 37.8817C136.343 37.5457 137.149 37.2097 137.978 36.8737C138.829 36.5376 139.457 37.1201 140.106 37.4785C141.159 38.061 142.167 38.733 143.198 39.3378C143.31 39.405 143.534 39.3826 143.623 39.3154C143.959 39.0466 143.847 38.1954 143.489 37.9265C142.66 37.2993 141.853 36.6721 141.025 36.0448C140.666 35.7536 140.577 35.4848 141.069 35.216C141.361 35.0591 141.652 34.8799 141.921 34.6783C142.19 34.4767 142.436 34.2303 142.682 33.9839C142.75 33.9167 143.578 33.2222 143.758 33.0878C144.094 32.8414 144.362 32.6846 144.586 32.483C145.236 31.8781 145.886 31.2509 146.513 30.6236C146.961 30.1532 147.297 29.5484 147.79 29.1228C148.216 28.6075 148.708 27.6219 148.731 27.6219C149.627 25.8969 150.164 24.06 150.321 22.1559C150.545 19.6245 149.694 17.2948 148.552 15.077C147.454 12.9489 145.886 11.7168 144.855 10.5519C144.609 10.2831 143.242 9.07341 141.54 7.79652C139.569 6.54204 137.194 5.60117 134.775 4.72751C132.176 3.78665 129.533 3.04739 127.718 2.62177C126.441 2.33055 124.358 2.15134 123.148 2.08414Z" fill="white"/>
<path d="M38.94 46.7751C39.8809 46.7751 40.8441 46.7751 41.785 46.7751C42.1658 46.7751 42.2778 46.9767 42.3002 47.3127C42.4346 48.6568 42.5466 50.0233 42.7034 51.3674C42.7482 51.7258 42.9051 52.0619 43.0171 52.3979C43.2635 52.1515 43.5771 51.9275 43.7787 51.6362C44.8092 50.2025 45.8172 48.7464 46.8477 47.3127C47.0941 46.9543 47.4302 46.8199 47.9006 46.8423C49.2895 46.8871 50.6784 46.7975 52.0673 46.8423C53.4562 46.8871 53.501 46.5735 53.0305 48.052C52.1345 50.9418 51.216 53.8092 50.3199 56.699C50.0063 57.6846 50.0063 57.6846 48.9983 57.707C48.2142 57.7294 47.4302 57.7518 46.6461 57.7294C45.9517 57.707 45.8845 57.595 46.1085 56.9454C46.8701 54.5932 47.6542 52.2635 48.4158 49.9113C48.483 49.6873 48.4606 49.4185 48.483 49.1721C48.3038 49.3289 48.0574 49.4633 47.923 49.6649C46.2205 52.0619 44.4956 54.4364 42.8603 56.8558C42.3674 57.595 41.8298 57.8414 41.0009 57.7294C40.5753 57.6622 39.9705 57.8638 39.724 57.6398C39.4776 57.4158 39.5224 56.8334 39.4776 56.3853C39.276 54.1452 39.0744 51.905 38.8952 49.6425C38.8952 49.5305 38.9176 49.4185 38.8728 49.3289C38.828 49.1945 38.7608 49.0601 38.6936 48.9256C38.604 49.0377 38.4696 49.1497 38.4248 49.2841C38.0887 50.4714 37.7975 51.6586 37.4391 52.8459C37.0135 54.2572 36.543 55.6461 36.1174 57.035C35.9606 57.5726 35.6694 57.819 35.0645 57.7742C34.3253 57.707 33.6084 57.7294 32.8692 57.707C32.5556 57.707 32.4436 57.5726 32.5332 57.259C33.2948 54.9517 34.0565 52.6443 34.8405 50.3369C35.1765 49.3289 35.5574 48.3208 35.8934 47.2903C36.0278 46.8199 36.2742 46.6855 36.7446 46.7079C37.4839 46.7527 38.2007 46.7079 38.94 46.7079C38.94 46.7303 38.94 46.7527 38.94 46.7751Z" fill="white"/>
<path d="M89.971 57.663C88.4701 57.663 86.9692 57.6406 85.4683 57.663C84.9755 57.663 84.8411 57.5286 84.9979 57.0357C85.6699 54.93 86.3195 52.8019 86.9916 50.6961C87.35 49.5984 87.7308 48.5008 88.0893 47.4031C88.2461 46.9327 88.4701 46.7534 89.0301 46.7534C90.9119 46.7983 92.816 46.7311 94.6977 46.7311C95.7058 46.7311 96.7138 46.6862 97.6995 46.8655C98.4388 46.9999 99.2676 47.3583 99.7604 47.8735C100.769 48.9712 100.41 50.3825 99.0884 51.1665C98.5508 51.4802 97.9459 51.6818 97.3859 51.9282C97.2739 51.973 97.1843 52.0626 97.0723 52.1298C97.1619 52.2194 97.2515 52.3314 97.3635 52.3986C97.6771 52.6002 98.0355 52.7347 98.3268 52.9587C99.3124 53.7427 99.3348 54.9524 98.5508 55.9157C97.4755 57.2374 96.0194 57.5286 94.4737 57.6182C92.9952 57.7078 91.4943 57.6406 89.971 57.663ZM92.0991 55.378C92.5472 55.3332 93.1744 55.3556 93.7568 55.2212C94.2945 55.1092 94.6081 54.6836 94.5633 54.1012C94.5185 53.5411 94.1377 53.2499 93.6 53.2051C93.0624 53.1603 92.5248 53.1379 91.9871 53.1379C90.4638 53.1155 90.419 53.1603 90.1278 54.6612C90.1278 54.706 90.1278 54.7284 90.1054 54.7732C89.9934 55.1764 90.1278 55.378 90.5534 55.378C91.0239 55.378 91.4943 55.378 92.0991 55.378ZM92.9056 51.0545C93.3312 51.0545 93.7569 51.0321 94.1825 50.9873C94.3617 50.9649 94.5409 50.9425 94.7201 50.8977C95.2801 50.7409 95.7506 50.1809 95.7058 49.7105C95.661 49.24 95.1681 48.8592 94.5185 48.8368C93.9585 48.8144 93.3984 48.8816 92.8608 48.8144C92.1663 48.7472 91.8527 49.016 91.6511 49.6881C91.2703 50.9649 91.2927 51.0321 92.592 51.0545C92.6816 51.0545 92.7936 51.0545 92.9056 51.0545Z" fill="white"/>
<path d="M58.699 46.7523C59.1918 46.7523 59.707 46.7523 60.1999 46.7523C60.6031 46.7523 60.7151 46.9091 60.6031 47.29C60.0207 49.1045 59.4382 50.8966 58.8782 52.7111C58.811 52.9351 58.811 53.1815 58.7886 53.4056C58.9902 53.2936 59.2366 53.204 59.4158 53.0471C60.2895 52.2183 61.1407 51.3446 62.0368 50.5158C62.9105 49.7093 63.8289 48.9477 64.7026 48.1412C65.0162 47.85 65.2626 47.4692 65.5986 47.1555C65.8002 46.9763 66.0467 46.7747 66.2931 46.7523C67.3684 46.7075 68.4436 46.7299 69.5189 46.7075C69.9221 46.7075 69.9669 46.8867 69.8549 47.2228C68.802 50.5382 67.7268 53.8312 66.7187 57.1466C66.4499 57.9979 65.8003 57.7291 65.285 57.7515C64.4786 57.7963 63.6497 57.6619 62.8433 57.6843C62.216 57.7067 62.1488 57.4826 62.328 56.9674C62.8657 55.3321 63.4033 53.6968 63.9409 52.0839C64.0081 51.9047 64.0753 51.7031 64.1201 51.5238C64.1425 51.4342 64.1201 51.3222 64.1201 51.2102C64.0081 51.2326 63.8513 51.2102 63.7841 51.2774C63.5601 51.479 63.3585 51.703 63.1345 51.9047C61.432 53.3832 59.7294 54.8617 58.0493 56.3626C57.8029 56.5866 57.6237 56.9002 57.5117 57.1914C57.3997 57.505 57.2653 57.6618 56.9292 57.6618C55.854 57.6618 54.7787 57.6394 53.7258 57.6394C53.345 57.6394 53.2554 57.4826 53.3674 57.1466C54.3979 53.876 55.4508 50.6054 56.4588 47.3348C56.5932 46.8867 56.8396 46.6851 57.3101 46.7299C57.7581 46.7747 58.2285 46.7523 58.699 46.7523Z" fill="white"/>
<path d="M31.8393 50.9867C31.8617 53.2045 30.764 54.8622 28.9943 56.1839C26.7542 57.864 24.2004 58.1776 21.5122 57.8416C20.1905 57.6848 18.9808 57.2367 17.928 56.4079C17.0767 55.7358 16.6063 54.8846 16.5839 53.7869C16.5615 51.9948 17.1439 50.4715 18.488 49.2394C19.5857 48.2089 20.7506 47.3129 22.2291 46.9544C24.7604 46.372 27.2694 46.1928 29.6439 47.5369C31.0328 48.2537 31.9961 49.4858 31.8393 50.9867ZM23.5731 55.7582C24.7828 55.6462 25.6789 55.0414 26.1269 53.9885C26.5749 52.9805 26.8662 51.9052 27.1126 50.8299C27.3366 49.8666 26.8886 49.1946 25.9477 48.881C25.0068 48.5898 24.0212 48.6794 23.3043 49.329C21.781 50.6955 21.2658 52.5324 21.3554 54.5038C21.3778 54.8174 21.7586 55.2206 22.0946 55.3998C22.5203 55.6238 23.0579 55.6462 23.5731 55.7582Z" fill="white"/>
<path d="M111.79 57.6178C111.208 57.6178 110.648 57.6178 110.065 57.6178C109.707 57.6178 109.55 57.4834 109.684 57.0802C110.267 55.3328 110.849 53.5855 111.432 51.8382C111.454 51.7486 111.499 51.659 111.499 51.5918C111.499 51.435 111.499 51.2782 111.476 51.1438C111.342 51.211 111.163 51.2334 111.073 51.323C109.304 52.8911 107.534 54.4368 105.809 56.0273C105.428 56.3857 105.226 56.9681 104.913 57.4162C104.823 57.5282 104.666 57.6626 104.532 57.6626C103.367 57.685 102.202 57.6626 101.037 57.6626C100.724 57.6626 100.634 57.5282 100.724 57.237C101.463 54.8848 102.18 52.5326 102.919 50.1581C103.21 49.2396 103.546 48.3212 103.815 47.4027C103.95 46.9771 104.129 46.7531 104.622 46.7755C105.45 46.8203 106.257 46.7307 107.086 46.7307C107.982 46.7307 108.116 46.8875 107.87 47.7387C107.377 49.3516 106.817 50.9197 106.279 52.5102C106.235 52.6223 106.167 52.7119 106.167 52.8015C106.145 52.9583 106.167 53.1375 106.167 53.2943C106.324 53.2495 106.526 53.2271 106.638 53.1375C107.399 52.4654 108.139 51.7486 108.878 51.0541C109.729 50.2925 110.625 49.5756 111.432 48.7692C111.947 48.254 112.373 47.6267 112.843 47.0667C112.977 46.9099 113.224 46.7307 113.425 46.7307C114.344 46.7083 115.285 46.7307 116.203 46.7307C116.83 46.7307 117.01 46.9995 116.83 47.5595C116.024 50.1133 115.24 52.6895 114.433 55.2432C114.209 55.9153 114.008 56.6097 113.739 57.2818C113.672 57.4386 113.425 57.5954 113.246 57.6178C112.753 57.6626 112.238 57.6402 111.745 57.6402C111.79 57.6402 111.79 57.6402 111.79 57.6178Z" fill="white"/>
<path d="M179.868 53.1374C179.375 53.1374 178.86 53.1598 178.367 53.1374C177.897 53.115 177.695 53.3166 177.561 53.7422C177.225 54.8623 176.822 55.96 176.486 57.0577C176.374 57.4385 176.172 57.6177 175.746 57.5953C174.693 57.5729 173.641 57.5505 172.565 57.5505C172.14 57.5505 172.072 57.3937 172.207 57.0353C172.744 55.3775 173.282 53.6974 173.82 52.0397C174.313 50.4268 174.805 48.8363 175.276 47.2234C175.388 46.865 175.522 46.7082 175.948 46.7306C176.978 46.753 178.031 46.6858 179.062 46.6858C179.667 46.6858 179.734 46.8202 179.532 47.4026C179.219 48.3211 178.95 49.2395 178.658 50.158C178.502 50.6284 178.614 50.8748 179.151 50.8748C180.204 50.8748 181.257 50.8524 182.31 50.8748C182.803 50.8972 183.004 50.6508 183.139 50.2252C183.452 49.2171 183.788 48.2315 184.102 47.201C184.236 46.7754 184.438 46.5962 184.908 46.6186C185.849 46.641 186.813 46.6186 187.753 46.641C188.403 46.641 188.493 46.753 188.291 47.3802C187.529 49.8668 186.745 52.3309 185.984 54.7951C185.76 55.512 185.558 56.2288 185.357 56.9681C185.245 57.3713 185.02 57.5729 184.595 57.5729C183.564 57.5729 182.556 57.5729 181.526 57.5953C180.966 57.5953 180.921 57.3713 181.078 56.9009C181.414 55.848 181.683 54.7727 181.996 53.6974C182.108 53.2942 181.907 53.1598 181.548 53.1598C181.011 53.115 180.428 53.115 179.868 53.1374Z" fill="white"/>
<path d="M6.30136 46.7749C6.77179 46.7749 7.24222 46.8197 7.69025 46.7749C8.20548 46.7301 8.27269 46.9093 8.13828 47.3573C7.77985 48.567 7.42143 49.7991 7.08541 51.0088C7.04061 51.2104 7.0406 51.412 7.0182 51.6136C7.21982 51.524 7.44383 51.4792 7.62305 51.3448C9.32556 49.9783 10.9833 48.5894 12.7082 47.2677C13.0666 46.9989 13.5818 46.8645 14.0299 46.8197C14.8363 46.7525 15.6428 46.7973 16.4492 46.8197C16.5836 46.8197 16.7405 46.8869 16.8749 46.9317C16.7853 47.0661 16.7181 47.2229 16.6061 47.3125C16.046 47.7605 15.4636 48.1638 14.9035 48.6118C14.0747 49.2615 13.2458 49.8887 12.3946 50.5383C11.9689 50.852 12.0809 51.2552 12.2154 51.6584C12.8426 53.3161 13.4474 54.9738 14.0971 56.6316C14.5003 57.6844 14.5227 57.662 13.425 57.662C12.5066 57.662 11.5657 57.6396 10.6472 57.7292C10.2216 57.774 10.0648 57.6172 9.9528 57.2588C9.61678 56.2059 9.23596 55.1531 8.89993 54.1002C8.63112 53.2713 8.38469 53.1817 7.69025 53.6969C7.39903 53.921 7.10781 54.1674 6.77179 54.3466C5.78613 54.8618 5.3829 55.7579 5.20369 56.766C5.09168 57.438 4.80046 57.7292 4.06121 57.6844C3.25475 57.6172 2.4259 57.7292 1.59704 57.7292C0.790589 57.7292 0.656177 57.5276 0.880192 56.7884C1.48503 54.817 2.08987 52.8457 2.76192 50.9192C3.20995 49.6199 3.74759 48.3206 4.26282 47.0437C4.30762 46.9093 4.55404 46.7749 4.68845 46.7749C5.22608 46.7301 5.76372 46.7525 6.30136 46.7749Z" fill="white"/>
<path d="M126.284 46.7079C126.911 46.7079 127.539 46.7303 128.166 46.7079C128.636 46.6855 128.86 46.8871 128.928 47.3351C129.152 48.9256 129.376 50.5161 129.622 52.1066C129.868 53.7196 130.115 55.3101 130.384 56.923C130.473 57.4382 130.361 57.6846 129.779 57.6622C128.681 57.6174 127.583 57.6398 126.508 57.6622C126.06 57.6622 125.814 57.5502 125.814 57.035C125.814 56.6318 125.724 56.2285 125.679 55.8029C125.635 55.3997 125.41 55.2429 125.03 55.2653C123.82 55.2653 122.633 55.2653 121.423 55.2877C121.221 55.2877 120.975 55.4221 120.841 55.5789C120.393 56.1165 120.034 56.7214 119.586 57.2366C119.407 57.4382 119.093 57.595 118.847 57.6174C118.085 57.6622 117.301 57.6174 116.54 57.6398C115.957 57.6622 115.979 57.4158 116.248 57.0574C117.032 55.9821 117.816 54.8844 118.623 53.8092C120.236 51.6138 121.871 49.4409 123.484 47.2455C123.775 46.8423 124.111 46.6631 124.604 46.6631C125.142 46.7303 125.724 46.7079 126.284 46.7079ZM123.887 53.3835C124.156 53.3835 124.425 53.3835 124.694 53.3835C125.164 53.4059 125.388 53.2491 125.343 52.7339C125.254 51.905 125.186 51.0762 125.097 50.2473C125.074 50.0009 124.895 49.7769 124.694 50.0457C123.977 50.9866 123.305 51.9274 122.633 52.9131C122.454 53.1819 122.566 53.3835 122.946 53.3835C123.238 53.3835 123.551 53.3835 123.887 53.3835Z" fill="white"/>
<path d="M167.996 57.5726C167.436 57.5726 166.876 57.5502 166.338 57.5726C165.98 57.5726 165.823 57.4158 165.778 57.0797C165.756 56.6989 165.688 56.2957 165.644 55.9149C165.621 55.4444 165.397 55.2652 164.927 55.2652C163.807 55.2876 162.709 55.2876 161.589 55.2652C161.096 55.2428 160.715 55.3996 160.536 55.8252C159.886 57.2813 158.833 57.931 157.221 57.6174C156.997 57.5726 156.75 57.6398 156.526 57.6174C156.257 57.595 155.966 57.5502 155.697 57.5278C155.832 57.3037 155.944 57.0573 156.101 56.8557C156.705 56.0045 157.265 55.1532 157.915 54.3244C158.43 53.6523 159.08 53.0923 159.595 52.4202C160.693 50.9865 161.746 49.5304 162.799 48.0743C163.359 47.2903 163.851 46.5286 165.061 46.6854C166.069 46.8198 167.122 46.6406 168.175 46.6406C168.354 46.6406 168.645 46.8646 168.668 47.0215C169.183 50.2473 169.676 53.4955 170.169 56.7213C170.191 56.8109 170.169 56.9005 170.191 56.9901C170.258 57.3933 170.124 57.595 169.676 57.5502C169.116 57.5502 168.556 57.5726 167.996 57.5726ZM163.941 53.4283C163.941 53.4059 163.941 53.3835 163.941 53.3835C164.165 53.3835 164.411 53.3611 164.635 53.3835C165.218 53.4507 165.397 53.2043 165.33 52.6442C165.24 51.9274 165.218 51.1881 165.151 50.4713C165.128 50.3145 165.016 50.1577 164.971 50.0008C164.815 50.0905 164.591 50.1353 164.501 50.2697C164.053 50.8297 163.627 51.3897 163.247 51.9946C163 52.3754 162.821 52.8234 162.597 53.2491C163.023 53.2939 163.493 53.3611 163.941 53.4283Z" fill="white"/>
<path d="M189.478 52.51C189.568 51.3003 190.24 49.8218 191.561 48.6121C194.294 46.148 197.475 45.9239 200.791 46.7976C202.224 47.1784 203.322 48.1193 203.636 49.7098C203.725 50.2026 203.613 50.449 203.076 50.4714C202.09 50.4938 201.104 50.6059 200.119 50.6059C199.939 50.6059 199.626 50.3818 199.581 50.2026C199.245 48.7017 197.699 48.0297 196.31 48.7913C195.302 49.329 194.944 50.3146 194.563 51.2779C194.294 51.9947 194.07 52.734 193.981 53.4956C193.846 54.5485 194.473 55.2206 195.549 55.3326C196.736 55.4446 197.722 55.0638 198.371 54.0557C198.595 53.6973 198.864 53.5853 199.267 53.6077C200.231 53.6973 201.194 53.7645 202.157 53.8317C202.471 53.8541 202.538 53.9885 202.359 54.2349C201.396 55.6238 200.231 56.7439 198.595 57.2591C196.602 57.8863 194.585 57.9087 192.592 57.3711C190.934 56.9455 189.344 55.2654 189.478 52.51Z" fill="white"/>
<path d="M81.8165 57.6395C80.9652 57.6395 80.114 57.6171 79.2403 57.6395C78.8147 57.6395 78.6355 57.5051 78.6131 57.0571C78.5011 55.2649 78.4787 55.265 76.6865 55.2874C75.8801 55.2874 75.0736 55.2649 74.2672 55.3098C74.0432 55.3098 73.7743 55.4442 73.6399 55.601C73.1471 56.1834 72.6991 56.8107 72.2286 57.3931C72.1166 57.5275 71.915 57.6395 71.7582 57.6619C70.9741 57.6843 70.1901 57.6843 69.406 57.6619C69.2044 57.6619 69.0252 57.5275 68.8236 57.4603C68.9132 57.3035 69.0028 57.1467 69.0924 56.9899C70.0557 55.6682 70.9966 54.3689 71.9598 53.0696C73.4383 51.0535 74.9168 49.0373 76.4177 47.0436C76.5297 46.8868 76.7985 46.7524 77.0002 46.7524C78.3218 46.73 79.6435 46.7524 80.9652 46.73C81.3461 46.73 81.4581 46.9316 81.5029 47.2452C81.7717 49.1493 82.0405 51.0535 82.3317 52.98C82.5109 54.1449 82.6901 55.3098 82.8694 56.4746C83.1382 57.9083 82.9814 57.6619 81.8165 57.6395ZM76.7313 53.5176C77.1122 53.4952 77.4706 53.54 77.7842 53.4504C77.9634 53.4056 78.2098 53.1368 78.1874 52.98C78.1426 52.1287 78.0306 51.2775 77.9186 50.4262C77.8738 50.0454 77.6274 49.911 77.3586 50.2694C76.7089 51.1207 76.0593 51.9719 75.4544 52.8456C75.2304 53.1816 75.32 53.4728 75.7905 53.4728C76.1265 53.4952 76.4401 53.4952 76.7313 53.5176Z" fill="white"/>
<path d="M150.029 46.8646C151.642 46.8646 153.232 46.7974 154.845 46.887C156.525 46.9767 157.802 48.1639 157.87 49.5976C157.937 50.9417 157.108 51.8602 156.077 52.577C154.957 53.3387 153.658 53.3835 152.381 53.4731C151.418 53.5403 150.455 53.5627 149.491 53.5627C148.976 53.5627 148.707 53.7643 148.551 54.2347C148.282 55.1756 147.968 56.1165 147.699 57.0573C147.61 57.4157 147.453 57.6398 147.05 57.6174C145.93 57.595 144.787 57.595 143.667 57.595C143.286 57.595 143.331 57.3934 143.398 57.1469C143.779 55.8925 144.137 54.638 144.518 53.4059C145.146 51.4345 145.795 49.4632 146.4 47.4919C146.579 46.9319 146.848 46.7078 147.453 46.7526C148.304 46.7974 149.178 46.775 150.029 46.775C150.029 46.775 150.029 46.8198 150.029 46.8646ZM151.127 51.4794C151.306 51.4794 151.642 51.457 151.978 51.4346C152.941 51.3449 153.613 50.7177 153.591 49.9561C153.568 49.1944 153.076 48.8584 151.956 48.8136C150.365 48.7688 150.365 48.7688 149.872 50.2697C149.469 51.4345 149.514 51.4794 150.701 51.4794C150.768 51.4794 150.858 51.4794 151.127 51.4794Z" fill="white"/>
<path d="M139.165 46.6406C140.756 46.6406 142.346 46.6406 143.937 46.6406C144.855 46.6406 144.878 46.6854 144.631 47.5143C144.228 48.836 144.228 48.836 142.884 48.8584C142.302 48.8808 141.742 48.8584 141.159 48.9256C140.913 48.9704 140.577 49.172 140.51 49.396C139.658 51.9722 138.829 54.5708 138.023 57.1469C137.933 57.4606 137.821 57.6398 137.441 57.6174C136.365 57.595 135.29 57.595 134.215 57.6398C133.677 57.6622 133.61 57.3934 133.744 56.9677C134.372 54.974 135.021 52.9803 135.648 50.9865C135.805 50.4713 135.94 49.956 136.074 49.4408C136.186 49.0152 136.052 48.7912 135.581 48.8136C134.864 48.836 134.148 48.8136 133.431 48.836C133.05 48.836 132.983 48.7464 133.095 48.3655C133.587 46.7078 133.565 46.6854 135.268 46.6854C136.567 46.6854 137.889 46.6854 139.188 46.6854C139.165 46.6854 139.165 46.663 139.165 46.6406Z" fill="white"/>
<path d="M93.0628 68.7516C92.9059 69.2668 92.7267 69.782 92.5699 70.2973C92.4355 70.6781 92.3011 71.0365 92.1891 71.4173C92.0547 71.843 91.7187 71.8206 91.405 71.7086C91.3154 71.6862 91.293 71.3277 91.3378 71.1485C91.5618 70.3421 91.8307 69.5356 92.0547 68.7292C92.1667 68.3707 92.3459 68.1691 92.7267 68.1915C92.8611 68.1915 92.9731 68.1691 93.1075 68.1691C94.2052 68.1019 94.2948 68.1915 94.4068 69.2668C94.4068 69.3564 94.4068 69.446 94.4292 69.5356C94.474 69.67 94.5637 69.8044 94.6309 69.9612C94.7205 69.8716 94.8325 69.782 94.8997 69.6924C95.2357 69.2668 95.5493 68.7964 95.9301 68.3931C96.0421 68.2587 96.2438 68.1691 96.423 68.1691C96.7366 68.1243 97.0726 68.1467 97.3862 68.1467C98.1255 68.1467 98.1927 68.2363 97.9911 68.9756C97.7671 69.8268 97.543 70.6557 97.2518 71.4845C97.207 71.6413 96.871 71.7758 96.6694 71.7982C95.5717 71.8654 95.5717 71.8206 95.9525 70.8125C96.1317 70.3645 96.311 69.9164 96.4678 69.4684C96.5126 69.3788 96.4902 69.2668 96.5126 69.1548C96.4006 69.1772 96.2438 69.1548 96.1542 69.222C95.9525 69.4012 95.7957 69.6252 95.6389 69.8268C95.2357 70.3869 94.8549 70.9693 94.4068 71.5069C94.25 71.6861 93.914 71.731 93.6676 71.8206C93.6004 71.6189 93.4884 71.4173 93.466 71.2157C93.3764 70.4317 93.3092 69.6252 93.242 68.8412C93.1972 68.774 93.13 68.7516 93.0628 68.7516Z" fill="white"/>
<path d="M101.889 69.5797C101.217 70.1845 100.5 70.7446 99.8948 71.4166C99.5588 71.7974 99.2452 71.8871 98.8195 71.7975C98.7075 71.7751 98.5059 71.5062 98.5283 71.4166C98.8196 70.4086 99.0884 69.3781 99.4692 68.4148C99.5364 68.2356 100.052 68.1908 100.388 68.1684C100.432 68.1684 100.589 68.5716 100.567 68.7508C100.522 69.1093 100.388 69.4677 100.32 69.8485C100.298 69.9605 100.365 70.0949 100.388 70.2293C100.5 70.1845 100.612 70.1397 100.701 70.0725C101.329 69.4901 101.933 68.8404 102.605 68.3028C102.829 68.1236 103.277 68.1908 103.613 68.146C103.636 68.37 103.703 68.594 103.636 68.7732C103.389 69.6469 103.143 70.5206 102.874 71.3942C102.695 71.9543 102.18 71.7302 101.821 71.7078C101.754 71.7078 101.665 71.2822 101.687 71.0806C101.777 70.6102 101.911 70.1621 102.045 69.6917C101.978 69.6469 101.933 69.6021 101.889 69.5797Z" fill="white"/>
<path d="M88.6713 67.9893C89.1641 68.1461 89.6794 68.2581 90.1498 68.5045C90.7995 68.8405 90.9563 69.4901 90.6426 70.1622C89.9706 71.6407 88.0217 72.3127 86.5656 71.5735C85.7143 71.1255 85.4455 70.4982 85.8711 69.6246C86.4312 68.4821 87.3944 68.0341 88.6713 67.9893ZM87.1032 70.4086C87.1704 70.9911 87.4392 71.2151 87.9769 71.1703C88.5817 71.1255 89.0297 70.655 89.2313 69.8262C89.3434 69.4229 89.4106 68.9749 88.9401 68.7509C88.4473 68.5045 87.9545 68.6165 87.6632 69.0645C87.4168 69.4678 87.2824 69.9606 87.1032 70.4086Z" fill="white"/>
<path d="M86.3868 74.2169C87.238 74.2169 87.9549 74.2393 88.3581 75.001C88.6941 75.6058 88.6045 76.2107 88.2013 76.7707C87.4845 77.7788 85.6699 78.2044 84.5275 77.7116C83.2058 77.1291 83.4298 75.8074 84.1018 75.1354C84.7963 74.4409 85.5803 74.1497 86.3868 74.2169ZM85.8043 77.4203C86.1404 77.2187 86.454 77.1067 86.6108 76.8827C86.8572 76.5243 87.014 76.0987 87.126 75.673C87.2828 75.113 86.8348 74.6874 86.2524 74.777C85.4907 74.889 84.7739 76.1659 85.1323 76.8379C85.2219 77.0619 85.5355 77.1963 85.8043 77.4203Z" fill="white"/>
<path d="M121.02 65.8836C120.504 65.7716 120.28 65.7044 120.46 65.234C120.616 64.8083 120.728 64.3827 120.84 63.9571C120.863 63.8451 120.84 63.6883 120.84 63.5763C120.728 63.6211 120.594 63.6435 120.504 63.7107C119.877 64.2707 119.25 64.8307 118.623 65.3908C118.466 65.5252 118.287 65.682 118.107 65.7044C117.368 65.8388 117.279 65.7044 117.48 64.9876C117.727 64.1587 118.018 63.3522 118.264 62.5234C118.399 62.0306 118.735 61.8961 119.16 62.0082C119.295 62.0306 119.474 62.277 119.451 62.4114C119.384 62.8594 119.205 63.2626 119.115 63.7107C119.093 63.8227 119.16 63.9795 119.183 64.0915C119.295 64.0467 119.407 64.0019 119.496 63.9347C120.168 63.3746 120.796 62.7698 121.512 62.2546C121.736 62.0978 122.14 62.165 122.453 62.1202C122.453 62.3442 122.52 62.5906 122.476 62.8146C122.252 63.5987 122.028 64.4051 121.714 65.1668C121.58 65.458 121.244 65.6596 121.02 65.8836Z" fill="white"/>
<path d="M103.457 77.9131C103.009 77.8907 102.942 77.7115 103.009 77.3755C103.121 76.9723 103.233 76.5915 103.323 76.1882C103.345 76.0538 103.323 75.9194 103.3 75.785C103.166 75.8298 103.032 75.8298 102.92 75.9194C102.27 76.5018 101.643 77.1291 100.948 77.6443C100.702 77.8235 100.299 77.7563 99.9626 77.8235C99.9626 77.6219 99.8954 77.3755 99.9402 77.1963C100.187 76.3226 100.478 75.449 100.747 74.5977C100.836 74.3065 101.688 74.1049 101.889 74.3065C101.934 74.3513 101.934 74.5081 101.912 74.5977C101.8 75.0234 101.665 75.449 101.576 75.897C101.553 76.009 101.62 76.1658 101.62 76.3002C101.732 76.2554 101.889 76.233 101.979 76.1658C102.628 75.6058 103.233 74.9786 103.905 74.4857C104.152 74.3065 104.6 74.3513 104.958 74.3065C104.981 74.3065 105.07 74.4857 105.048 74.5529C104.734 75.5834 104.421 76.5915 104.04 77.5995C104.04 77.7339 103.681 77.8011 103.457 77.9131Z" fill="white"/>
<path d="M108.9 74.2614C109.325 74.2614 109.751 74.239 110.177 74.2838C110.289 74.3062 110.49 74.5526 110.445 74.6646C110.177 75.6055 109.863 76.5463 109.572 77.4648C109.393 78.0248 108.922 77.7784 108.586 77.756C108.519 77.756 108.497 77.3752 108.474 77.1512C108.452 76.8823 108.452 76.6135 108.429 76.3671C108.071 76.4343 107.668 76.4119 107.399 76.6135C107.018 76.8599 106.749 77.2632 106.413 77.5768C106.301 77.6888 106.122 77.8008 105.965 77.8232C105.786 77.8456 105.607 77.7784 105.405 77.756C105.495 77.6216 105.584 77.4648 105.696 77.3304C105.808 77.196 105.943 77.0616 106.055 76.9496C106.436 76.6135 106.794 76.3223 106.144 75.8519C105.764 75.5607 105.898 74.8886 106.413 74.7318C107.197 74.463 108.026 74.3062 108.855 74.127C108.877 74.1494 108.877 74.1942 108.9 74.2614ZM108.071 75.9191C108.116 75.8743 108.138 75.8071 108.183 75.7623C108.676 75.8743 108.989 75.6951 109.034 75.1798C109.079 74.7094 108.676 74.7542 108.407 74.7542C107.981 74.7542 107.421 74.687 107.444 75.3366C107.444 75.5159 107.847 75.7175 108.071 75.9191Z" fill="white"/>
<path d="M100.881 65.772C100.343 65.884 100.209 65.6824 100.41 65.1672C100.634 64.6295 100.791 64.0471 100.948 63.487C101.038 63.1958 101.284 62.815 100.769 62.6358C100.209 62.4342 99.6039 62.6134 99.4471 63.0614C99.2007 63.7783 98.9767 64.5175 98.7303 65.2568C98.5734 65.7272 97.9238 65.9736 97.543 65.7272C97.4534 65.6824 97.4086 65.4808 97.4534 65.3688C97.767 64.3831 98.103 63.3974 98.4838 62.4342C98.551 62.2774 98.8871 62.1206 99.0887 62.1206C100.119 62.0982 101.127 62.0981 102.158 62.0981C102.539 62.0981 102.606 62.255 102.494 62.6134C102.202 63.487 101.934 64.3831 101.687 65.2792C101.53 65.6824 101.329 65.884 100.881 65.772Z" fill="white"/>
<path d="M110.066 62.0977C110.491 62.0977 110.917 62.0753 111.342 62.0977C111.499 62.1201 111.678 62.2321 111.835 62.2993C111.656 62.3889 111.499 62.5233 111.32 62.5457C110.85 62.5906 110.357 62.5682 109.864 62.5682C109.438 62.5458 109.326 62.8146 109.304 63.173C109.259 63.5986 109.55 63.5762 109.819 63.5986C110.2 63.6434 110.558 63.6658 110.939 63.7106C111.365 63.7554 111.79 63.8002 111.835 64.3379C111.902 64.9427 111.566 65.3459 111.051 65.4579C110.29 65.6148 109.483 65.7268 108.721 65.682C107.153 65.6148 107.086 65.906 107.669 64.2259C107.848 63.7106 108.049 63.173 108.161 62.6354C108.273 62.2097 108.497 62.0529 108.923 62.0753C109.326 62.0977 109.707 62.0753 110.066 62.0977ZM109.707 63.9571C109.662 64.0019 109.64 64.069 109.595 64.1139C109.125 64.0242 108.833 64.1363 108.811 64.6739C108.789 65.2115 109.169 65.0995 109.483 65.1219C109.909 65.1443 110.446 65.1443 110.424 64.5619C110.424 64.3603 109.953 64.1587 109.707 63.9571Z" fill="white"/>
<path d="M83.9227 71.7754C83.497 71.8874 83.3178 71.6186 83.2282 71.2154C83.2058 71.1482 83.2058 71.081 83.161 71.0138C83.0266 70.7449 82.8922 70.4985 82.7578 70.2521C82.4218 70.4761 82.0857 70.7001 81.7945 70.9465C81.7049 71.0361 81.6825 71.193 81.6153 71.3274C81.4585 71.7754 80.9209 71.9994 80.54 71.753C80.428 71.6858 80.3608 71.4394 80.4056 71.305C80.6745 70.3641 80.9657 69.4232 81.3017 68.5048C81.4809 67.9896 81.9737 68.2808 82.3322 68.2584C82.3546 68.2584 82.4442 68.6392 82.4442 68.8408C82.4442 69.1096 82.3994 69.4008 82.3994 69.6697C82.601 69.5129 82.825 69.3784 83.0266 69.2216C83.5642 68.8632 84.0795 68.5048 84.6395 68.1912C84.7739 68.124 84.9979 68.2136 85.1772 68.2584C85.0875 68.3928 84.9979 68.5496 84.8859 68.6616C84.7515 68.796 84.5723 68.908 84.4155 69.02C84.0347 69.2888 83.9899 69.6473 84.1243 70.0505C84.2363 70.3641 84.3707 70.6777 84.4827 71.0138C84.7739 71.753 84.7739 71.753 83.9227 71.7754Z" fill="white"/>
<path d="M94.1601 65.8169C93.4881 65.7945 92.7713 65.7497 92.3904 65.0776C91.8304 64.1144 92.3456 62.8375 93.5553 62.3446C94.5858 61.919 95.6386 61.8518 96.6243 62.479C96.8259 62.6134 96.9379 62.8599 97.0723 63.0615C96.8707 63.1287 96.6915 63.2407 96.4899 63.2855C96.0867 63.3527 95.7283 63.3079 95.437 62.9047C95.325 62.7255 94.8546 62.6582 94.5858 62.7479C93.9361 62.9495 93.4209 63.9799 93.6001 64.6296C93.7121 65.0776 94.0257 65.324 94.4738 65.1672C94.765 65.0776 94.9666 64.764 95.2578 64.6744C95.5938 64.5848 95.9523 64.6296 96.3107 64.6072C96.1763 64.8088 96.1091 65.1 95.9299 65.212C95.3922 65.5256 94.8098 65.7497 94.2498 65.9961C94.205 65.9065 94.1825 65.8617 94.1601 65.8169Z" fill="white"/>
<path d="M126.62 65.7041C126.172 65.7937 125.948 65.5697 125.881 65.1665C125.881 65.1441 125.881 65.1216 125.858 65.1216C125.657 64.8304 125.478 64.5392 125.276 64.248C124.917 64.5392 124.447 64.7856 124.245 65.1665C124.021 65.6145 123.775 65.7713 123.305 65.7265C122.991 65.6817 122.901 65.5697 122.991 65.2561C123.305 64.36 123.596 63.4639 123.887 62.5679C124.044 62.0751 124.469 62.1423 124.805 62.1871C124.895 62.2095 124.94 62.6127 124.985 62.8367C125.007 62.9263 124.917 63.0383 124.917 63.1503C124.917 63.2847 124.962 63.4191 124.985 63.5535C125.119 63.5087 125.253 63.4864 125.365 63.3967C125.836 63.0607 126.306 62.7023 126.777 62.3439C126.844 62.2991 126.911 62.2543 126.956 62.2543C127.27 62.2543 127.561 62.2767 127.874 62.2991C127.695 62.4335 127.516 62.5903 127.314 62.7247C126.396 63.3295 126.396 63.3071 126.754 64.3376C126.844 64.6064 126.956 64.8752 127.068 65.1441C127.314 65.6145 127.158 65.8161 126.62 65.7041Z" fill="white"/>
<path d="M131.906 65.682C131.592 65.7268 131.324 65.6596 131.324 65.1891C131.324 65.1219 131.256 65.0099 131.189 64.9651C130.831 64.7187 129.599 64.8979 129.307 65.2339C129.195 65.3459 129.106 65.5251 128.971 65.5699C128.77 65.6372 128.523 65.6148 128.322 65.6372C128.367 65.458 128.367 65.2563 128.479 65.1219C129.128 64.1811 129.823 63.285 130.495 62.3441C130.876 61.8065 131.436 61.9185 131.906 62.0305C132.108 62.0753 132.264 62.5458 132.332 62.837C132.466 63.509 132.533 64.1811 132.623 64.8531C132.735 65.682 132.735 65.682 131.906 65.682ZM131.301 63.733C131.189 63.5314 131.077 63.3298 130.988 63.1506C130.719 63.4642 130.472 63.7554 130.204 64.0691C130.338 64.1587 130.495 64.2707 130.629 64.2931C131.01 64.3155 131.301 64.2483 131.301 63.733Z" fill="white"/>
<path d="M96.5347 77.9134C96.1763 77.8462 95.7955 77.8686 95.4819 77.7342C94.541 77.331 94.2946 76.3229 94.877 75.4493C95.6835 74.2172 98.0804 73.702 99.0437 74.598C99.2229 74.7548 99.2453 75.0684 99.3573 75.2925C98.9765 75.2701 98.4165 75.4045 98.2821 75.2253C97.8788 74.6428 97.4084 74.7996 96.9604 74.934C96.3107 75.1132 95.8179 76.1885 96.0195 76.8382C96.1763 77.331 97.1396 77.4206 97.6548 77.0174C97.9012 76.8158 98.2596 76.7262 98.5957 76.6365C98.7077 76.6141 98.8645 76.7262 98.9989 76.7934C98.9317 76.9054 98.8869 77.0622 98.7749 77.1294C98.1252 77.6446 97.4084 77.9358 96.5347 77.9134Z" fill="white"/>
<path d="M80.7416 74.2612C81.3016 74.3284 81.8393 74.306 82.3321 74.4628C82.6233 74.5524 83.049 74.9109 83.049 75.1573C83.049 75.4933 82.7801 75.9861 82.4889 76.1206C82.0409 76.3222 81.4809 76.367 80.988 76.367C80.316 76.367 79.9576 76.591 79.8231 77.263C79.7783 77.5542 79.7559 77.8903 79.2631 77.8903C78.3894 77.8679 78.367 77.8903 78.6359 77.039C78.8375 76.367 79.0615 75.7173 79.2183 75.0229C79.3527 74.4404 79.6439 74.194 80.2264 74.2836C80.4056 74.2836 80.5848 74.2612 80.7416 74.2612ZM81.0552 74.5973C80.7864 74.9557 80.54 75.1349 80.4728 75.3813C80.3608 75.7621 80.6968 75.9189 80.988 75.8293C81.2792 75.7397 81.5257 75.4933 81.8169 75.3141C81.6153 75.1349 81.4136 74.9333 81.0552 74.5973Z" fill="white"/>
<path d="M88.9624 65.727C88.492 65.727 88.044 65.727 87.5736 65.727C87.2599 65.727 87.1031 65.6374 87.2375 65.279C87.5512 64.3605 87.8424 63.4197 88.2008 62.5012C88.268 62.322 88.5144 62.1204 88.6936 62.1204C89.6121 62.098 90.5081 62.1428 91.4266 62.1652C91.5386 62.1652 91.673 62.2772 91.785 62.3444C91.673 62.434 91.561 62.5908 91.449 62.6132C90.9338 62.658 90.4185 62.6132 89.9033 62.658C89.7241 62.6804 89.5001 62.7476 89.3881 62.882C89.2985 62.994 89.2537 63.218 89.2985 63.3748C89.3209 63.4644 89.5449 63.5541 89.6793 63.5541C89.9257 63.5765 90.1945 63.5317 90.4185 63.5765C90.5753 63.5989 90.7098 63.7557 90.8666 63.8453C90.7322 63.9349 90.5978 64.1141 90.4409 64.1141C90.0601 64.1589 89.6793 64.0693 89.3209 64.1365C89.1193 64.1813 88.9625 64.4725 88.8056 64.6517C88.9849 64.8085 89.1193 65.055 89.3209 65.0998C89.7017 65.1894 90.1049 65.1446 90.4858 65.167C90.5978 65.1894 90.6874 65.3238 90.7994 65.391C90.6874 65.4806 90.5978 65.6598 90.4858 65.6598C89.9705 65.727 89.4777 65.727 88.9624 65.727Z" fill="white"/>
<path d="M91.4047 77.9586C90.9119 77.8466 90.5087 77.8242 90.195 77.6674C89.1422 77.1074 89.0526 75.7633 89.971 75.0016C90.9791 74.1504 92.48 73.904 93.4209 74.4864C93.6001 74.5984 93.7793 74.7328 93.8913 74.912C93.9361 74.9792 93.8241 75.2704 93.8017 75.2704C93.4209 75.2256 92.9728 75.248 92.6816 75.024C92.3008 74.7328 91.9648 74.6656 91.5615 74.8896C91.0239 75.1808 90.6207 76.1665 90.7551 76.7489C90.8895 77.309 91.6287 77.4658 92.144 77.0402C92.2336 76.9729 92.2784 76.8385 92.368 76.8161C92.7264 76.7489 93.0848 76.7265 93.4433 76.6817C93.2865 76.9282 93.152 77.2642 92.928 77.3762C92.4352 77.645 91.8528 77.8018 91.4047 77.9586Z" fill="white"/>
<path d="M84.7965 62.1645C85.1326 62.1869 85.603 62.2093 86.051 62.2989C86.5214 62.3885 87.0143 62.635 86.9023 63.1278C86.8127 63.5086 86.4094 63.9119 86.051 64.0687C85.603 64.2479 85.0429 64.2255 84.5053 64.2255C83.9677 64.2255 83.6541 64.4495 83.6093 64.9871C83.542 65.704 83.1164 65.816 82.534 65.704C82.422 65.6816 82.2652 65.4352 82.2876 65.3679C82.5564 64.4271 82.87 63.4862 83.206 62.5678C83.2732 62.3885 83.5421 62.2317 83.7661 62.1869C84.0349 62.1197 84.3709 62.1645 84.7965 62.1645ZM84.8637 63.9791C85.1774 63.6206 85.379 63.3742 85.5806 63.1502C85.3342 62.9934 85.1325 62.7694 84.8637 62.7022C84.4381 62.6126 84.1469 62.859 84.2141 63.2846C84.2589 63.5086 84.5501 63.6654 84.8637 63.9791Z" fill="white"/>
<path d="M115.375 62.0979C115.867 62.0083 116.069 62.2099 116.136 62.6804C116.248 63.442 116.45 64.1813 116.584 64.9429C116.629 65.2341 116.875 65.6373 116.293 65.727C115.487 65.839 115.307 65.727 115.218 65.1221C115.151 64.6069 115.061 64.0917 114.994 63.5764C114.971 63.4868 114.927 63.3748 114.882 63.2852C114.792 63.3524 114.658 63.3972 114.59 63.4868C114.165 64.0468 113.739 64.6069 113.336 65.1445C113.224 65.2789 113.134 65.4805 113 65.5477C112.821 65.6374 112.574 65.6373 112.35 65.6821C112.395 65.5029 112.395 65.2789 112.485 65.1221C113.067 64.2933 113.672 63.4868 114.254 62.6356C114.546 62.2323 114.882 62.0083 115.375 62.0979Z" fill="white"/>
<path d="M104.241 62.0527C104.33 62.1423 104.554 62.3215 104.733 62.568C104.868 62.7248 104.935 62.9488 105.002 63.1504C105.182 63.576 105.406 63.5536 105.674 63.24C105.898 62.9712 106.145 62.7024 106.369 62.4335C106.481 62.3215 106.593 62.1647 106.727 62.1423C106.951 62.0975 107.198 62.1647 107.444 62.1647C107.354 62.3664 107.31 62.5904 107.175 62.7472C106.503 63.5312 105.809 64.2929 105.092 65.0321C104.509 65.6146 103.725 65.6818 102.941 65.7042C102.852 65.7042 102.74 65.5922 102.65 65.5474C102.717 65.4354 102.785 65.2785 102.897 65.2561C103.21 65.1665 103.524 65.1441 103.837 65.0545C104.263 64.9201 104.465 64.6737 104.218 64.2033C103.972 63.7328 103.77 63.2848 103.524 62.8144C103.21 62.1199 103.233 62.0527 104.241 62.0527Z" fill="white"/>
<path d="M104.599 70.7891C104.913 71.0355 105.204 71.1699 105.227 71.3267C105.249 71.7075 104.958 71.8643 104.622 71.7747C104.42 71.7299 104.241 71.5507 104.039 71.4387C104.196 71.2595 104.353 71.0579 104.599 70.7891Z" fill="white"/>
<path d="M114.054 11.2916C113.942 11.09 113.897 11.0004 113.852 10.9108C113.762 10.7764 113.673 10.642 113.583 10.5076C113.404 10.642 113.135 10.754 113.023 10.9332C112.598 11.6501 112.889 12.3445 113.382 12.8373C114.121 13.5542 114.972 14.2038 115.823 14.8087C116.07 14.9879 116.428 14.9655 116.742 15.0327C116.943 15.0551 117.145 15.0551 117.347 15.0775C117.347 15.1447 117.347 15.1895 117.347 15.2567C116.563 15.2567 115.756 15.2567 114.972 15.2567C113.986 15.2567 112.978 15.2567 111.993 15.2567C111.164 15.2567 110.761 15.5927 110.94 16.1976C111.007 16.3992 111.276 16.6456 111.455 16.668C112.15 16.7128 112.687 17.0488 113.247 17.4072C113.695 17.676 114.21 17.8329 114.883 18.1241C113.762 19.177 112.732 20.1402 111.702 21.1259C111.321 21.4843 110.917 21.8651 110.626 22.2908C110.335 22.7164 109.954 22.7388 109.529 22.7388C105.026 22.8284 100.546 22.9404 96.0429 23.0524C95.9085 23.0524 95.7741 23.0524 95.6844 23.0972C95.438 23.2092 95.0124 23.3884 95.0348 23.5229C95.0796 23.9709 95.2364 24.3741 95.8413 24.3965C97.1181 24.4189 98.3726 24.4861 99.6495 24.5981C101.778 24.7773 103.906 24.9565 106.034 25.2254C107.983 25.4718 109.909 25.8302 111.836 26.1438C112.194 26.211 112.53 26.4126 112.889 26.5022C114.098 26.8159 115.308 27.0847 116.518 27.4207C117.907 27.8015 119.296 28.2048 120.685 28.608C121.715 28.9216 122.768 29.2128 123.776 29.5713C124.762 29.9073 125.702 30.3553 126.666 30.7361C127.203 30.9377 127.808 31.0273 128.323 31.2962C130.384 32.2818 132.445 33.3123 134.506 34.3652C135.044 34.634 135.537 35.1716 135.537 35.1716C135.223 35.418 134.708 35.6197 134.372 35.7541C133.274 36.1797 132.176 36.6053 131.034 36.9189C126.509 38.151 121.872 38.7783 117.19 38.5991C114.547 38.5095 111.903 38.263 109.305 37.815C105.676 37.1654 102.203 35.9557 99.0895 33.9619C96.6029 32.3714 94.2956 30.5345 93.0187 27.7791C92.2122 26.0542 91.7866 24.1949 91.921 22.2684C92.0106 21.0363 92.145 19.8042 92.4362 18.6169C92.6154 17.8329 93.0411 17.116 93.3995 16.3768C93.8251 15.5031 94.2284 14.607 94.7436 13.8006C95.0796 13.2854 95.6172 12.8597 96.1101 12.4341C96.7373 11.8965 97.3646 11.3588 98.0366 10.866C98.7535 10.3284 99.4703 9.83553 100.232 9.3651C101.173 8.80506 102.136 8.24502 103.122 7.75219C103.839 7.39377 104.578 7.08015 105.34 6.83373C106.93 6.2961 108.498 5.71366 110.133 5.33283C112.082 4.8624 114.054 4.41436 116.047 4.23515C118.87 3.98873 121.715 3.85433 124.56 3.92154C126.554 3.96634 128.547 4.30236 130.519 4.70559C132.199 5.06402 133.812 5.80326 135.492 6.25129C137.217 6.72172 138.763 7.55058 140.263 8.46904C141.204 9.05148 142.056 9.81313 142.862 10.5972C143.668 11.3812 144.408 12.2773 145.125 13.1509C146.088 14.3382 146.581 15.7495 146.984 17.2056C147.365 18.4825 147.611 19.7594 147.566 21.1035C147.477 23.5676 146.693 25.763 145.326 27.8239C143.915 29.9073 139.39 33.2227 138.606 33.8051C138.606 33.8275 138.404 33.7827 138.337 33.7379C137.598 33.2003 136.881 32.6179 136.142 32.0802C135.021 31.2962 133.901 30.4897 132.737 29.7729C131.863 29.2352 131.84 29.0784 132.468 28.2496C133.162 27.3087 134.103 27.0399 135.201 26.9055C135.537 26.8607 135.806 26.435 136.097 26.1662C136.119 26.1438 135.962 25.8974 135.873 25.8526C133.319 25.1358 130.765 24.3965 128.099 24.1053C127.338 24.0157 126.576 23.7917 125.792 23.7245C122.88 23.4556 119.968 23.2316 117.078 22.9852C117.212 22.7388 117.347 22.5372 117.459 22.3356C118.041 21.2827 118.646 20.2522 119.206 19.1994C119.497 18.6393 119.811 18.0569 119.99 17.452C120.259 16.5784 120.797 16.3096 121.401 16.9816C122.253 17.9001 123.843 17.4968 124.493 16.6904C124.605 16.556 124.739 16.3096 124.672 16.1751C124.627 16.0631 124.358 15.9511 124.179 15.9511C123.037 15.8615 121.894 15.7943 120.752 15.7271C120.752 15.7495 120.752 15.7047 120.752 15.7047C121.693 15.4807 122.566 14.8535 123.597 15.1895C123.821 15.2567 124.09 15.2119 124.336 15.1671C124.762 15.0775 125.187 14.9431 125.613 14.8311C125.546 14.8311 125.478 14.8087 125.411 14.7863C125.411 14.7191 125.411 14.6742 125.411 14.607C126.128 14.607 126.845 14.6294 127.584 14.607C127.808 14.607 128.01 14.4502 128.211 14.383C128.077 14.159 128.01 13.8678 127.808 13.711C127.562 13.5094 127.248 13.4198 126.8 13.1958C127.674 12.9269 128.368 12.6805 129.107 12.4789C129.466 12.3669 129.869 12.3669 130.228 12.2997C130.564 12.2325 130.989 10.978 130.765 10.754C130.698 10.6868 130.496 10.7092 130.362 10.7316C129.936 10.8212 129.511 10.978 129.063 11.0228C128.771 11.0676 128.637 10.9332 128.861 10.6196C129.376 9.90273 129.757 9.14108 129.578 8.22262C129.533 7.9762 129.264 7.77459 129.085 7.55057C128.928 7.72978 128.749 7.8642 128.637 8.06582C128.458 8.35704 128.346 8.67065 128.211 8.98427C128.01 8.71545 127.786 8.46904 127.584 8.20022C127.002 7.32656 126.061 7.01293 125.322 7.43856C124.963 7.64018 124.851 7.90901 125.075 8.28983C125.165 8.44664 125.254 8.60345 125.366 8.73786C126.464 9.85794 126.688 11.6724 124.918 12.8149C122.768 14.2038 120.393 14.6743 117.907 13.9126C117.078 13.6662 116.025 13.3078 115.98 12.1653C115.958 11.6277 116.182 11.0676 116.383 10.5524C116.54 10.1716 116.495 9.99234 116.115 9.81313C114.771 9.20829 114.031 9.72352 114.054 11.2916Z" fill="white"/>
</svg>
