<svg width="98" height="106" viewBox="0 0 98 106" fill="none" xmlns="http://www.w3.org/2000/svg">
<g id="Logo-01">
<path id="Vector" d="M48.7358 0.861816C48.7523 3.39117 48.5374 5.95359 48.8184 8.44988C49.3309 12.9961 51.5461 16.6331 55.4807 19.1459C58.1258 20.8321 60.7213 22.601 63.3002 24.403C65.2675 25.7751 66.6727 27.6267 67.367 29.9577C67.8299 31.4951 67.5654 32.9664 67.0198 34.3882C66.0445 36.934 64.226 38.8187 62.0273 40.29C60.4072 41.3646 58.6383 42.1911 56.9024 43.15C56.3404 41.4637 56.8859 39.3973 58.6879 38.5707C59.8451 38.0417 61.0684 37.4796 61.9942 36.6199C64.5566 34.2394 65.3336 28.8831 60.9362 26.5025C59.0681 25.4941 57.2331 24.4526 55.398 23.3946C51.6453 21.2124 49.0333 18.0548 47.8761 13.8558C47.4463 12.3018 47.3471 10.5825 47.4132 8.96236C47.4959 6.56526 47.8596 4.16816 48.1406 1.77106C48.1737 1.45696 48.4382 1.15939 48.6035 0.861816C48.62 0.861816 48.6862 0.861816 48.7358 0.861816Z" fill="white"/>
<path id="Vector_2" d="M98.0001 54.7549C97.8513 55.1352 97.7026 55.4989 97.5042 56.0279C97.4381 56.0609 97.2231 56.1601 96.8594 56.3255C96.628 55.1848 96.4296 54.1763 96.1816 52.9199C96.9586 53.0026 97.4876 53.0522 98.0001 53.1018C98.0001 53.6473 98.0001 54.2094 98.0001 54.7549Z" fill="white"/>
<path id="Vector_3" d="M48.835 105.574C46.471 95.0431 44.1069 84.5289 41.7098 73.7998C46.6363 73.7998 51.414 73.7998 56.1751 73.7998C53.8441 84.314 51.4801 94.9769 49.1161 105.623C49.0334 105.607 48.9342 105.59 48.835 105.574Z" fill="white"/>
<path id="Vector_4" d="M97.7686 66.6909C97.7686 67.4679 97.7686 68.1788 97.7686 68.9723C65.2176 68.9723 32.7162 68.9723 0.181763 68.9723C0.181763 68.1953 0.181763 67.4844 0.181763 66.6909C32.6997 66.6909 65.201 66.6909 97.7686 66.6909Z" fill="white"/>
<path id="Vector_5" d="M44.041 15.1289C44.4378 18.0385 43.1318 20.1215 41.2637 21.9565C39.7593 23.4113 38.2053 24.8 36.7175 26.2713C34.7502 28.222 34.0063 30.7018 33.9071 33.3799C33.8905 33.8924 34.155 34.5537 34.5187 34.9339C35.428 35.8762 36.4364 36.7193 37.4614 37.5459C37.9243 37.9262 38.5029 38.1576 39.0154 38.4882C40.9661 39.7612 42.5366 41.2656 42.2391 43.9933C41.958 43.9437 41.5778 43.9272 41.2472 43.8115C37.8912 42.5716 34.7667 40.9515 32.3035 38.2403C30.9148 36.7028 30.0717 34.8843 30.0552 32.884C30.0386 30.4042 30.8652 28.1063 32.7003 26.3374C34.2542 24.8165 35.8909 23.3782 37.4779 21.9069C39.0815 20.4025 40.7181 18.9147 42.2721 17.3772C42.9169 16.716 43.3963 15.939 44.041 15.1289Z" fill="white"/>
<path id="Vector_6" d="M35.8903 49.2003C35.8903 48.3737 35.8903 47.6629 35.8903 46.9189C44.6355 46.9189 53.3312 46.9189 62.2253 46.9189C62.2253 47.5637 62.2749 48.1588 62.1922 48.7209C62.1592 48.9358 61.812 49.2499 61.5806 49.2665C60.8036 49.316 60.0101 49.2499 59.2331 49.2499C58.6049 49.2334 57.9766 49.2169 57.3484 49.2334C55.8771 49.283 54.4058 49.4152 52.9179 49.4318C47.7766 49.4648 42.6352 49.4483 37.4773 49.4318C36.9648 49.4318 36.4358 49.283 35.8903 49.2003Z" fill="white"/>
<path id="Vector_7" d="M75.3025 52.9199C75.2199 53.3828 75.1372 53.8292 75.038 54.3747C77.1045 54.3251 78.5758 55.2178 78.7081 57.152C78.8899 59.5987 76.7904 60.1774 74.9719 60.7394C74.9223 60.9709 74.8727 61.1031 74.8727 61.2354C74.8562 61.3346 74.8892 61.4503 74.8892 61.5825C75.0876 61.6652 75.286 61.7313 75.4844 61.7975C75.4844 61.847 75.4844 61.8966 75.4844 61.9462C74.6247 61.9462 73.7651 61.9462 72.7732 61.9462C73.0708 61.7809 73.2691 61.6487 73.5336 61.4999C73.5502 61.285 73.5667 61.037 73.5667 60.8221C72.1119 60.3261 70.3596 60.2765 69.9793 58.4084C69.3842 55.5815 71.2688 54.6392 73.6659 54.1433C73.3518 53.6308 73.1369 53.2836 72.922 52.9199C73.7155 52.9199 74.509 52.9199 75.3025 52.9199ZM73.6494 55.036C72.7567 54.7219 72.0954 55.0195 71.5498 55.6477C70.9051 56.4081 70.8224 58.2266 71.368 59.1028C71.8144 59.8136 72.5748 60.1278 73.6494 59.9294C73.6494 58.3423 73.6494 56.7222 73.6494 55.036ZM74.9884 54.9699C74.9884 56.6561 74.9884 58.3258 74.9884 60.0286C75.9638 60.0782 76.7243 59.7145 77.1541 58.9209C77.7327 57.8464 77.65 56.6726 77.0549 55.6146C76.6912 54.9368 75.9473 54.8045 74.9884 54.9699Z" fill="white"/>
<path id="Vector_8" d="M55.3812 61.6332C55.5796 61.6993 55.7615 61.7654 55.9598 61.8316C55.9598 61.8812 55.9598 61.9142 55.9598 61.9638C55.1002 61.9638 54.2405 61.9638 53.2156 61.9638C53.5462 61.7985 53.7611 61.6828 54.0091 61.5671C54.0091 59.0708 54.0091 56.5745 54.0091 54.0121C53.8107 53.8963 53.5958 53.7806 53.2982 53.5988C53.7281 53.4334 54.0752 53.3012 54.4389 53.1689C54.8522 53.2516 55.2655 53.3508 55.7119 53.45C55.0175 54.6072 55.4639 55.814 55.3316 57.0539C56.4558 57.0539 57.5138 57.0539 58.6545 57.0539C58.6545 56.0289 58.6545 55.004 58.6545 53.8798C58.5719 53.8137 58.4065 53.698 58.109 53.4665C59.0513 53.4665 59.8283 53.4665 60.8036 53.4665C60.4565 53.6814 60.2746 53.7971 60.0432 53.9459C60.0432 56.4422 60.0432 58.9716 60.0432 61.5009C60.2581 61.6167 60.4565 61.7324 60.6549 61.8316C60.6383 61.8812 60.6383 61.9142 60.6218 61.9638C59.7787 61.9638 58.919 61.9638 58.0759 61.9638C58.0594 61.9308 58.0428 61.8977 58.0263 61.8646C58.2247 61.782 58.4065 61.6993 58.671 61.5671C58.671 60.3437 58.671 59.0873 58.671 57.7813C57.58 57.7813 56.5219 57.7813 55.3978 57.7813C55.3812 59.0873 55.3812 60.3272 55.3812 61.6332Z" fill="white"/>
<path id="Vector_9" d="M7.80301 61.9636C6.8607 61.9636 6.01757 61.9636 4.97607 61.9636C5.33977 61.7652 5.52163 61.6495 5.73654 61.5337C5.73654 59.0209 5.73654 56.5081 5.73654 53.9622C5.55469 53.863 5.33977 53.7638 5.14139 53.6481C5.14139 53.1852 10.9936 53.1191 12.4154 53.582C12.1343 53.6977 11.9359 53.7969 11.7045 53.8961C11.7045 56.475 11.7045 59.0209 11.7045 61.5999C11.9194 61.6825 12.1343 61.7652 12.3327 61.8313C12.3162 61.8809 12.3162 61.9305 12.2996 61.9801C11.4069 61.9801 10.5307 61.9801 9.63802 61.9801C9.62149 61.9305 9.62149 61.8809 9.60496 61.8313C9.81987 61.7487 10.0183 61.6825 10.2993 61.5833C10.2993 59.087 10.2993 56.5742 10.2993 53.9126C9.2082 53.9126 8.1667 53.9126 7.00947 53.9126C6.92682 54.1275 6.82763 54.4251 6.71191 54.7392C6.77803 54.7392 6.84416 54.7392 6.91029 54.7392C6.91029 56.475 6.99295 58.2274 6.87722 59.9632C6.84416 61.0213 6.82763 61.3519 7.80301 61.9636Z" fill="white"/>
<path id="Vector_10" d="M29.8891 57.8966C29.9221 56.8385 30.0874 55.7309 30.5669 54.8217C31.162 53.714 32.2862 53.0362 33.5756 53.152C34.832 53.2677 35.9066 53.9124 36.3695 55.1688C37.0473 57.0535 37.1961 58.9381 35.9727 60.6739C35.0966 61.9303 33.493 62.4097 32.0051 61.9468C30.8148 61.5666 29.9717 60.3433 29.8891 58.8885C29.8891 58.5578 29.8891 58.2272 29.8891 57.8966C29.9717 57.9131 29.8229 57.88 29.8891 57.8966ZM31.1289 57.6155C31.0628 57.599 31.1785 57.6155 31.1289 57.6155C31.162 58.2272 31.162 58.8223 31.2281 59.4175C31.3769 60.5747 32.1208 61.5005 32.997 61.6658C33.7575 61.8146 34.6502 61.4344 35.0304 60.5582C35.8735 58.5744 35.9231 56.5244 34.8651 54.6068C34.1212 53.2842 32.435 53.3173 31.7406 54.6729C31.2943 55.5491 31.2612 56.4748 31.1289 57.6155Z" fill="white"/>
<path id="Vector_11" d="M64.3579 57.7641C64.3579 59.0039 64.3579 60.1942 64.3579 61.401C65.2837 61.401 66.2095 61.401 67.2014 61.401C67.4659 60.8885 67.7304 60.3926 67.9949 59.8966C68.0445 59.9132 68.0941 59.9132 68.1437 59.9297C68.1437 60.591 68.1437 61.2522 68.1437 61.9796C66.2425 61.9796 64.2918 61.9796 62.341 61.9796C62.3245 61.93 62.308 61.8804 62.308 61.8309C62.5064 61.7482 62.6882 61.6655 62.9031 61.5829C62.9197 61.5168 62.9527 61.4341 62.9527 61.3514C62.9693 59.037 62.9693 56.7226 62.9527 54.4246C62.9527 54.1105 62.7874 53.813 62.6386 53.2839C64.4406 53.1682 66.2921 53.1021 68.2594 53.4658C68.2263 54.0279 68.1768 54.5569 68.1437 55.1024C68.061 55.119 67.9949 55.1355 67.9122 55.152C67.5816 54.6892 67.2344 54.2263 66.9203 53.7799C66.0442 53.7799 65.2506 53.7799 64.3579 53.7799C64.3579 54.8875 64.3579 55.9621 64.3579 57.0862C65.4986 57.7806 66.2095 57.0532 66.8873 56.2101C66.9699 56.2266 67.0526 56.2431 67.1353 56.2597C67.1683 57.0862 67.2014 57.8963 67.251 58.7229C67.1683 58.7725 67.0691 58.8221 66.9865 58.8882C66.5897 58.5245 66.2095 58.1443 65.8127 57.7641C65.3498 57.7641 64.9035 57.7641 64.3579 57.7641Z" fill="white"/>
<path id="Vector_12" d="M46.8506 61.9957C46.1067 61.9957 45.214 61.9957 44.3213 61.9957C45.6604 60.6401 45.9745 58.772 46.6688 57.1188C47.2143 55.8294 47.6442 54.4903 48.1236 53.1512C48.3881 53.1347 48.6195 53.1347 48.7683 53.1182C50.4876 55.879 50.2892 59.3341 52.2235 61.9792C51.3307 61.9792 50.3719 61.9792 49.2147 61.9792C49.5619 61.7973 49.7602 61.6981 49.9751 61.5824C49.9917 61.5163 50.0247 61.4336 50.0413 61.351C50.157 59.268 49.132 58.4745 47.1152 59.0861C46.2555 59.3506 46.3216 60.2268 46.1563 60.8716C46.1067 61.1691 46.6027 61.5989 46.8506 61.9957ZM49.7272 58.6894C49.2312 57.3999 48.7849 56.2592 48.2558 54.9367C47.8591 56.2096 47.5119 57.3172 47.1482 58.4744C48.0244 58.5406 48.7683 58.6067 49.7272 58.6894Z" fill="white"/>
<path id="Vector_13" d="M88.4115 53.8949C88.18 53.7792 88.0147 53.6966 87.8494 53.6139C87.8494 53.5478 87.8659 53.4817 87.8659 53.4155C88.5933 53.4155 89.3372 53.4155 90.1803 53.4155C89.1058 54.5562 89.6017 55.7796 89.7836 57.069C90.3126 57.069 90.8581 57.0525 91.3872 57.069C92.9411 57.1021 94.0322 58.0113 94.0322 59.2843C94.0322 60.8879 92.9907 61.9955 91.4037 62.012C90.1638 62.0286 88.9074 62.012 87.6179 61.9294C88.428 61.5491 88.428 60.8713 88.428 60.177C88.3949 58.1105 88.4115 56.0275 88.4115 53.8949ZM89.7505 61.3342C90.759 61.4169 91.7013 61.6979 92.3956 60.7721C92.8585 60.177 92.8585 59.0528 92.4121 58.4412C91.7178 57.4823 90.7424 57.7138 89.7505 57.7964C89.7505 58.9702 89.7505 60.0943 89.7505 61.3342Z" fill="white"/>
<path id="Vector_14" d="M39.1146 53.8954C38.9493 53.7962 38.7839 53.6805 38.569 53.5482C39.0319 53.416 39.4452 53.1845 39.842 53.201C40.9827 53.2672 42.1399 53.3664 43.2475 53.6143C43.9584 53.7796 44.4378 54.3417 44.4543 55.2014C44.4874 56.2429 44.4378 57.2678 43.3798 57.7473C42.5201 58.1275 41.5778 58.3093 40.5363 58.6235C40.5363 59.4666 40.5363 60.5081 40.5363 61.5826C40.7016 61.6488 40.9165 61.7479 41.1149 61.8306C41.0984 61.8802 41.0984 61.9298 41.0819 61.9794C40.2387 61.9794 39.3956 61.9794 38.3541 61.9794C38.6682 61.7975 38.8666 61.6983 39.0981 61.5496C39.1146 59.0533 39.1146 56.5404 39.1146 53.8954ZM40.5198 54.0772C40.5198 55.284 40.5198 56.4413 40.5198 57.5985C41.6109 57.9291 42.4871 57.6977 42.9499 57.0033C43.3467 56.4082 43.3136 55.1518 42.9004 54.5566C42.454 53.9284 41.6274 53.7466 40.5198 54.0772Z" fill="white"/>
<path id="Vector_15" d="M19.8546 59.6988C19.8546 60.4428 19.8546 61.2032 19.8546 61.9968C17.9535 61.9968 16.0193 61.9968 13.8206 61.9968C14.2173 61.7653 14.3992 61.6496 14.6306 61.5173C14.6306 59.021 14.6306 56.4917 14.6306 53.9127C14.4488 53.8136 14.2338 53.7144 14.0355 53.6152C14.0355 53.5656 14.052 53.5325 14.052 53.4829C15.9862 53.4829 17.9204 53.4829 19.9042 53.4829C19.9042 53.9789 19.9042 54.4913 19.9042 55.1691C19.6563 55.0204 19.3752 54.9542 19.3256 54.8054C18.9619 53.797 18.2015 53.6482 17.2757 53.7309C16.8955 53.7639 16.5152 53.7309 16.0523 53.7309C16.0523 54.855 16.0523 55.9131 16.0523 56.9711C16.912 57.5993 17.1104 57.5497 18.5817 56.2768C18.5817 57.1034 18.5817 57.8638 18.5817 58.8061C18.1849 58.3928 17.8874 58.0622 17.5733 57.7316C17.0938 57.7316 16.6144 57.7316 16.0523 57.7316C16.0523 58.9384 16.0523 60.0956 16.0523 61.3355C16.9781 61.3355 17.8708 61.3355 18.8131 61.3355C19.0942 60.7734 19.3587 60.2113 19.6397 59.6658C19.7059 59.6988 19.772 59.6988 19.8546 59.6988Z" fill="white"/>
<path id="Vector_16" d="M26.2691 54.0607C26.0542 53.8954 25.8558 53.7466 25.5913 53.5647C25.988 53.3994 27.4924 53.3664 27.9388 53.4821C27.8231 53.7466 27.5751 53.9946 27.5751 54.2591C27.542 56.6727 27.5585 59.1029 27.5585 61.5661C27.79 61.6488 28.0049 61.7314 28.2198 61.8141C28.2198 61.8637 28.2198 61.8967 28.2198 61.9463C27.3436 61.9463 26.4509 61.9463 25.3102 61.9463C25.7401 61.7645 25.9715 61.6818 26.236 61.5661C26.236 60.5411 26.236 59.5162 26.236 58.392C25.8392 58.392 25.4921 58.4085 25.1449 58.392C24.434 58.3424 23.7232 58.3094 23.0289 58.1771C22.3841 58.0448 22.0039 57.615 21.9543 56.9042C21.8882 55.9123 21.7559 54.9369 21.6402 53.9119C21.4583 53.8293 21.2434 53.7301 21.045 53.6309C21.045 53.5813 21.0616 53.5482 21.0616 53.4986C21.8882 53.4986 22.6982 53.4986 23.5413 53.4986C22.5494 54.5567 22.9793 55.8461 23.0619 57.0529C23.095 57.582 24.3018 58.144 24.9631 57.9787C25.6409 57.8134 26.3187 57.582 26.2856 56.6727C26.2525 55.8461 26.2691 55.0195 26.2691 54.0607Z" fill="white"/>
<path id="Vector_17" d="M83.5354 61.4998C83.9321 61.6486 84.1636 61.7478 84.395 61.847C84.395 61.8966 84.3785 61.9297 84.3785 61.9792C83.4197 61.9792 82.4608 61.9792 81.4193 61.9792C81.535 61.8801 81.6012 61.7809 81.7004 61.7478C81.8161 61.6982 81.9483 61.6817 82.1137 61.6321C82.7584 59.0366 82.5765 56.4742 82.1798 53.9283C80.5927 53.267 80.3282 54.6226 79.7827 55.5649C79.7165 55.5153 79.667 55.4823 79.6008 55.4327C79.6008 54.8045 79.6008 54.1763 79.6008 53.3662C81.7996 53.3662 84.0313 53.3662 86.3458 53.3662C86.3458 54.1101 86.3458 54.7218 86.3458 55.4327C85.4861 55.3996 85.6845 54.5234 85.1555 54.1267C84.7422 54.0275 84.1801 53.8952 83.5354 53.7299C83.5354 56.375 83.5354 58.9374 83.5354 61.4998Z" fill="white"/>
<path id="Vector_18" d="M0 52.8042C0.661269 52.8042 1.09109 52.8042 1.50438 52.8042C1.80195 54.5896 1.38866 55.9783 0.429821 56.0279C0.281035 54.9864 0.148786 53.9284 0 52.8042Z" fill="white"/>
<path id="Vector_19" d="M94.4132 53.0191C94.8596 52.986 95.2067 52.953 95.5539 52.9199C96.2978 54.1598 95.2233 55.1848 95.1737 56.3585C94.3967 55.3666 94.3306 54.2425 94.4132 53.0191Z" fill="white"/>
<path id="Vector_20" d="M2.79416 56.1107C2.57925 55.4659 2.38087 54.8377 2.16596 54.193C2.1329 54.193 2.09984 54.2095 2.06677 54.2095C2.0833 53.7797 2.11636 53.3334 2.13289 52.8374C2.54619 52.8374 2.92642 52.8374 3.4885 52.8374C3.42237 53.8954 3.35624 54.9865 3.29011 56.0611C3.1248 56.0776 2.95948 56.0942 2.79416 56.1107Z" fill="white"/>
</g>
</svg>
