<svg width="154" height="75" viewBox="0 0 154 75" fill="none" xmlns="http://www.w3.org/2000/svg">
<g id="Logo-02">
<path id="path26" d="M47.5663 49.1836H57.3399V52.3775H52.6905V74.8192H47.5663V49.1836Z" fill="white"/>
<path id="path28" d="M63.1347 65.1953L64.0129 52.3775H64.3071L65.1852 65.1953H63.1347ZM57.4601 74.8192H62.4771L62.952 68.011H65.368L65.8449 74.8192H70.8599L68.1875 49.1836H60.1325L57.4601 74.8192Z" fill="white"/>
<path id="path30" d="M78.198 65.8467V70.6796C78.198 71.331 78.7022 71.5202 78.9963 71.5202C79.4795 71.5202 79.8157 71.1209 79.8157 70.6796V64.712C79.8157 63.9135 79.6686 63.031 77.7568 63.031H75.6768V60.2153H77.8408C79.2904 60.2153 79.8157 59.8791 79.8157 58.3031V53.218C79.8157 52.7768 79.4795 52.3775 78.9963 52.3775C78.7022 52.3775 78.198 52.5457 78.198 53.218V57.3996H73.0717V53.7644C73.0717 51.9783 73.2817 49.1836 76.8744 49.1836H81.1183C84.7109 49.1836 84.942 51.9783 84.942 53.7644V57.8619C84.942 60.6566 82.9881 61.413 81.4544 61.35V61.6021C84.9 61.5181 84.942 64.1657 84.942 65.0692V70.2384C84.942 72.0455 84.7109 74.8192 81.1183 74.8192H76.8744C73.2817 74.8192 73.0717 72.0455 73.0717 70.2384V65.8467H78.198Z" fill="white"/>
<path id="path32" d="M88.3031 49.1836H100.173V74.8192H95.0471V52.3775H93.4294V74.8192H88.3031V49.1836Z" fill="white"/>
<path id="path34" d="M108.661 63.2832V52.3775H109.334C109.88 52.3775 110.279 52.8398 110.279 53.6593V62.0014C110.279 62.8209 109.88 63.2832 109.334 63.2832H108.661ZM103.535 74.8192H108.661V66.0989H111.603C115.174 66.0989 115.405 63.3252 115.405 61.5181V53.7644C115.405 51.9783 115.174 49.1836 111.603 49.1836H103.535V74.8192Z" fill="white"/>
<path id="path36" d="M125.511 70.6796C125.511 71.1209 125.175 71.5202 124.692 71.5202C124.398 71.5202 123.894 71.331 123.894 70.6796V53.218C123.894 52.5457 124.398 52.3775 124.692 52.3775C125.175 52.3775 125.511 52.7768 125.511 53.218V70.6796ZM118.767 70.2384C118.767 72.0455 118.998 74.8192 122.57 74.8192H126.835C130.407 74.8192 130.638 72.0455 130.638 70.2384V53.7644C130.638 51.9783 130.407 49.1836 126.835 49.1836H122.57C118.998 49.1836 118.767 51.9783 118.767 53.7644V70.2384Z" fill="white"/>
<path id="path38" d="M147.319 49.1836H154V74.8192H148.874V58.7444H148.685L146.038 74.8192H141.941L139.315 58.7444H139.126V74.8192H133.999V49.1836H140.659L144 67.2125L147.319 49.1836Z" fill="white"/>
<path id="path40" d="M40.9228 14.1341C39.3534 7.26295 35.4205 1.67357 34.8784 0.77002C34.0212 2.0518 30.8845 6.98979 29.2899 12.4531C27.5482 18.5678 27.2919 23.9891 27.8928 29.3053C28.4894 34.6426 30.7437 40.1269 30.7437 40.1269C31.9413 42.9846 33.7355 46.0735 34.9036 47.5864C36.6159 45.3591 40.551 38.7191 41.7779 30.0618C42.4607 25.2289 42.4901 21.0053 40.9228 14.1341ZM34.8784 45.8634C34.1074 44.4135 32.9098 41.6608 32.7964 37.3742C32.7669 33.2557 34.4204 29.7046 34.9036 28.9691C35.3343 29.7046 36.7587 32.7934 36.9289 37.017C37.0445 41.1355 35.6747 44.3925 34.8784 45.8634ZM40.4669 25.7962C40.4081 28.4228 40.095 31.1965 39.6959 32.8565C39.8387 29.9988 39.4963 25.9853 38.8408 22.8334C38.1853 19.7025 36.3301 14.4493 34.849 12.0328C33.4813 14.3443 31.7963 18.883 30.9139 22.8124C30.0273 26.7418 30.0021 31.5117 30.0021 32.9405C29.7668 31.7428 29.1785 27.4352 29.3445 23.1276C29.4832 19.5764 30.3151 15.8992 30.7711 14.2182C32.5106 8.60778 34.4792 5.01459 34.849 4.44724C35.2188 5.01459 37.6979 9.44828 38.9837 14.0921C40.2631 18.7359 40.5215 23.1906 40.4669 25.7962Z" fill="white"/>
<path id="path42" d="M37.5404 49.1839H25.6091V57.1897C25.6197 57.1897 25.6281 57.1687 25.6386 57.1687C28.4496 54.353 33.0087 54.353 35.8218 57.1687C38.6329 59.9634 38.6329 64.5232 35.8218 67.3389C35.8092 67.3599 35.7966 67.3599 35.784 67.3809C35.7693 67.3809 35.7546 67.4019 35.742 67.4229C32.9372 70.1966 29.2732 71.5835 25.6091 71.5835C21.9283 71.5835 18.2474 70.1966 15.4406 67.3809C10.4907 62.4429 9.90459 54.7732 13.6779 49.1839C14.1863 48.4274 14.7725 47.713 15.4406 47.0406C18.2474 44.2248 21.9283 42.838 25.6091 42.838V23.5903C11.4656 23.5903 0.000732422 35.0423 0.000732422 49.1839C0.000732422 63.3254 11.4656 74.7984 25.6091 74.7984C32.9835 74.7984 39.6267 71.6675 44.2992 66.6875V49.1839H37.5404Z" fill="white"/>
</g>
</svg>
