<svg width="138" height="84" viewBox="0 0 138 84" fill="none" xmlns="http://www.w3.org/2000/svg">
<path fill-rule="evenodd" clip-rule="evenodd" d="M14.8353 70.6898C13.7954 69.9934 0.81617 70.1681 0.81617 70.1681L0.65564 82.4508L5.84685 82.6232L6.01682 79.1612C6.01682 79.1612 9.81875 79.5094 13.1037 79.3371C16.3933 79.1612 17.2573 74.8411 17.085 73.4553C16.9115 72.0779 15.874 71.3767 14.8353 70.6898ZM6.01628 75.7051L6.1839 73.6253C6.1839 73.6253 8.43838 73.4566 9.81939 73.4566C11.1992 73.4566 11.8933 74.8423 11.0281 75.7051C10.1641 76.5668 6.01628 75.7051 6.01628 75.7051Z" fill="white"/>
<path fill-rule="evenodd" clip-rule="evenodd" d="M26.4222 69.8211C20.8958 69.4776 18.4761 71.9021 17.0856 73.4566C17.0856 73.4566 16.0481 74.8412 16.5686 77.6091C17.0856 80.3723 20.714 82.4521 22.9638 82.8027C25.21 83.1426 28.502 83.1426 31.7846 82.0992C34.9234 81.1127 34.9144 77.9131 34.9073 75.3746C34.9069 75.2554 34.9066 75.1377 34.9066 75.0218C34.9066 72.412 31.9593 70.1693 26.4222 69.8211ZM25.3855 73.1056C23.8286 73.1056 21.9613 74.5055 22.2776 76.7399C22.7935 80.5525 25.9084 80.0284 27.4665 79.5102C27.5802 79.4721 27.6865 79.4377 27.786 79.4055C29.0466 78.9973 29.201 78.9473 29.3574 76.2241C29.5286 73.2815 26.9401 73.1056 25.3855 73.1056Z" fill="white"/>
<path fill-rule="evenodd" clip-rule="evenodd" d="M51.9139 74.7724C51.0732 73.2579 49.22 70.4071 46.3404 70.2461C43.4689 70.077 39.5791 69.7401 37.7224 70.4071C35.8588 71.0833 34.3503 72.7508 34.0078 74.2573C33.6722 75.7683 33.324 79.1159 35.5266 80.6213C37.7212 82.1278 41.2789 83.303 44.6532 82.6303C48.0264 81.9622 51.2404 80.6213 51.7479 77.7751H46.006C46.006 77.7751 44.4779 79.7864 42.6259 79.6173C42.6259 79.6173 40.9249 80.1245 39.7463 78.4535C38.57 76.7711 38.7349 75.2669 39.9146 73.7582C41.1082 72.2471 44.3119 72.7496 44.6521 73.4212C44.9877 74.0928 45.4951 75.0945 45.4951 75.0945L51.9139 74.7724Z" fill="white"/>
<path fill-rule="evenodd" clip-rule="evenodd" d="M52.1069 70.3619H58.0334V74.6391H63.947V70.0098H70.0679V82.8243H64.3303V78.5532H58.2251V82.8243H51.9139L52.1069 70.3619Z" fill="white"/>
<path fill-rule="evenodd" clip-rule="evenodd" d="M72.2036 70.0098L87.8722 70.1858V73.3014H78.3672V74.5136H86.291V77.9743H78.0104V79.5398H88.2218V82.8243H72.3766L72.2036 70.0098Z" fill="white"/>
<path fill-rule="evenodd" clip-rule="evenodd" d="M99.5939 70.1688H94.2303L93.8845 71.0376C93.8845 71.0376 90.596 71.0376 88.8739 71.2099C87.1376 71.3787 85.9265 73.2838 85.9265 75.5347C85.9265 77.7821 88.181 79.1631 89.3861 79.5113C90.596 79.856 94.2303 80.0295 94.2303 80.0295V82.971H99.9503V80.203C99.9503 80.203 102.878 80.0295 103.751 80.0295C104.607 80.0295 105.816 79.3402 107.205 77.7821C108.594 76.224 108.071 73.9743 106.691 72.2486C105.302 70.5099 100.631 70.6917 99.9503 70.8652C99.2516 71.0364 99.5939 70.1688 99.5939 70.1688ZM94.2297 73.9739L94.0573 76.5672C94.0573 76.5672 91.2918 76.9154 91.2918 75.8837C91.2918 74.8415 91.8135 73.8028 94.2297 73.9739ZM99.948 74.146L100.112 76.5681C100.112 76.5681 101.669 77.2633 102.54 76.0511C103.395 74.8412 101.839 73.9736 99.948 74.146Z" fill="white"/>
<path fill-rule="evenodd" clip-rule="evenodd" d="M110.958 74.1744V82.8243H116.417V74.1744H121.361L122.394 72.8727L120.86 71.0776H106.527C106.531 71.0776 105.841 73.6867 107.376 73.8459C108.911 74.0129 110.958 74.1744 110.958 74.1744Z" fill="white"/>
<path fill-rule="evenodd" clip-rule="evenodd" d="M126.919 74.1457V70.6908L121.912 70.8643V83.3135H131.936C133.331 83.3135 134.711 82.623 135.921 81.5855C137.131 80.5527 137.475 78.6464 137.303 77.4283C137.131 76.2243 135.921 75.1832 134.711 74.4892C133.499 73.8022 126.919 74.1457 126.919 74.1457ZM127.447 79.8547V77.7808C127.447 77.7808 129.865 77.2615 131.418 77.6085C132.978 77.9532 131.761 79.8547 130.901 79.8547H127.447Z" fill="white"/>
<path fill-rule="evenodd" clip-rule="evenodd" d="M46.5746 18.3022H52.0357V36.8211L46.5746 32.0021V18.3022Z" fill="white"/>
<path fill-rule="evenodd" clip-rule="evenodd" d="M53.1075 12.2012H58.3517V42.8152L53.1075 37.7778V12.2012Z" fill="white"/>
<path fill-rule="evenodd" clip-rule="evenodd" d="M59.4236 6.10107H64.7758V35.1061H59.4236V6.10107Z" fill="white"/>
<path fill-rule="evenodd" clip-rule="evenodd" d="M65.8424 0H71.4087V29.1124H65.8424V0Z" fill="white"/>
<path fill-rule="evenodd" clip-rule="evenodd" d="M72.1573 5.77734H77.5111V35.1067H72.1573V5.77734Z" fill="white"/>
<path fill-rule="evenodd" clip-rule="evenodd" d="M78.7966 12.0889H84.0408V37.672L78.7966 42.8154V12.0889Z" fill="white"/>
<path fill-rule="evenodd" clip-rule="evenodd" d="M85.0011 18.1934H90.3577V31.5747L85.0011 36.8203V18.1934Z" fill="white"/>
<path fill-rule="evenodd" clip-rule="evenodd" d="M59.4236 35.7529H64.7758V62.6099H59.4236V35.7529Z" fill="white"/>
<path fill-rule="evenodd" clip-rule="evenodd" d="M65.8424 29.9731H71.0851V62.6104H65.8424V29.9731Z" fill="white"/>
<path fill-rule="evenodd" clip-rule="evenodd" d="M72.1573 35.856H77.5111V62.6107H72.1573V35.856Z" fill="white"/>
</svg>
