<svg width="173" height="53" viewBox="0 0 173 53" fill="none" xmlns="http://www.w3.org/2000/svg">
<path d="M4.2424 50.709C4.02253 49.9029 3.80264 49.0967 3.58277 48.2905C2.84986 45.5054 1.82381 42.7937 1.31078 40.0086C-0.228319 31.8001 2.0437 24.7642 8.20011 19.0475C11.7181 15.7495 15.8223 13.3309 20.2197 11.4253C25.9364 8.86015 31.9462 7.02791 38.0293 5.63539C44.772 4.09629 51.6613 2.99693 58.5506 2.19073C70.2038 0.798211 81.9303 0.211869 93.6568 0.0652884C99.3002 -0.0080021 104.87 0.0652884 110.514 0.0652884C110.88 0.0652884 111.247 0.0653152 111.613 0.138606C111.76 0.138606 111.906 0.35845 112.053 0.431741C111.906 0.578322 111.76 0.724921 111.613 0.724921C110.294 0.871502 108.975 1.09138 107.582 1.23796C102.745 1.67771 97.8344 1.97086 92.9972 2.55718C89.1861 2.99693 85.4483 3.58324 81.7105 4.24286C77.6795 4.97576 73.6485 5.70867 69.6175 6.58816C64.9269 7.61423 60.3096 8.93347 55.7656 10.5459C52.9073 11.5719 50.1223 12.7446 47.4105 14.2837C44.5522 15.8961 41.9137 17.7283 40.0815 20.4401C38.0293 23.445 37.8094 26.6698 39.2753 30.0411C40.6678 33.2659 42.9398 35.7578 45.3584 38.1763C49.0229 41.7676 53.2737 44.4794 57.5979 47.1911C58.7705 47.924 59.9432 48.6569 61.0425 49.4631C61.4823 49.7563 62.0686 50.1227 61.9953 50.7823C50.4887 50.7823 39.0554 50.7823 27.5488 50.7823C27.4022 50.4159 27.3289 50.0494 27.1823 49.7563C24.837 46.3849 22.7849 42.867 21.7589 38.836C20.293 33.1193 21.0259 27.7691 24.3973 22.8587C27.4755 18.5345 31.653 15.4563 36.197 12.8911C37.0765 12.3781 37.956 11.8651 38.8355 11.352C38.9088 11.2788 38.9821 11.1322 39.0554 11.0589C38.9088 11.0589 38.8355 11.0589 38.6889 11.0589C38.6156 11.0589 38.5424 11.1322 38.4691 11.1322C36.0505 12.2315 33.5586 13.2576 31.2133 14.4303C27.6221 16.2625 24.324 18.6078 21.5389 21.6127C18.3875 25.0574 16.6285 29.0884 16.5552 33.8522C16.4819 38.0298 17.8012 41.8409 19.4135 45.5787C20.1465 47.2644 20.8794 49.0234 21.6123 50.709C16.1155 50.709 10.1789 50.709 4.2424 50.709Z" fill="white"/>
<path d="M78.7787 18.6077C78.7054 19.0474 78.7054 19.4139 78.7054 19.8536C78.7054 25.2771 78.7054 30.7006 78.7054 36.1241C78.7054 37.8831 78.4123 38.1762 76.7266 38.1762C75.9937 38.1762 75.1875 38.2495 74.4546 38.1762C73.2086 38.1029 72.8422 37.7365 72.8422 36.4905C72.8422 32.0931 72.8422 27.6957 72.7689 23.225C72.7689 20.0002 72.6956 16.7754 72.6223 13.6239C72.6223 13.3307 72.6223 13.0376 72.6223 12.7445C72.7689 12.0115 73.2086 11.5718 73.9415 11.5718C76.58 11.5718 79.2185 11.5718 81.8569 11.5718C82.6631 11.5718 83.3228 11.9382 83.6892 13.0376C84.4954 15.3096 85.2283 17.6549 85.9612 19.9269C86.914 22.6387 87.8667 25.3504 88.7462 28.0621C88.8195 28.282 88.8928 28.5752 89.0394 28.795C89.1127 28.9416 89.4058 29.3814 89.8456 29.3814C90.2853 29.3814 90.5052 29.1615 90.5052 29.0149C90.6518 28.5019 90.7984 27.9156 90.9449 27.4026C91.6778 25.2771 92.4841 23.1517 93.217 20.953C93.8033 19.3406 94.243 17.6549 94.7561 15.9692C95.1225 14.8698 95.5622 13.7705 95.9287 12.6711C96.2218 11.9382 96.7349 11.5718 97.5411 11.5718C100.18 11.5718 102.818 11.5718 105.456 11.5718C106.556 11.5718 106.776 11.7917 106.776 12.9643C106.776 20.8797 106.776 28.7218 106.776 36.6371C106.776 37.8098 106.409 38.1762 105.163 38.1762C104.284 38.1762 103.404 38.1762 102.525 38.1762C101.425 38.1762 100.986 37.7365 100.986 36.6371C100.986 32.313 100.986 27.9156 100.986 23.5914C100.986 22.1989 100.986 20.8064 100.986 19.4139C100.986 19.194 100.986 18.9741 100.912 18.8276C100.839 18.6077 100.766 18.4611 100.619 18.3145C100.473 18.1679 100.18 18.1679 100.033 18.1679C99.8864 18.1679 99.6665 18.1679 99.5932 18.2412C99.5199 18.3145 99.4467 18.3145 99.4467 18.3878C99.3734 18.5344 99.2268 18.8275 99.2268 19.0474C98.8603 20.2934 98.4206 21.5393 97.9809 22.7852C97.3212 24.4709 96.8082 26.2299 96.2219 27.9889C96.002 28.6485 95.7088 29.2348 95.489 29.8944C94.6828 32.1664 93.8033 34.4384 92.9971 36.7837C92.6306 37.8098 91.8977 38.103 91.0183 38.2495C90.1388 38.3961 89.186 38.3228 88.3065 38.2495C87.2804 38.1762 86.6941 37.37 86.4009 36.344C86.181 35.4645 85.8146 34.585 85.4482 33.7055C85.0084 32.5329 84.6419 31.3602 84.2022 30.1876C83.8358 29.2348 83.4693 28.282 83.1028 27.256C82.883 26.5963 82.6631 25.8635 82.3699 25.2038C81.7836 23.5182 81.2706 21.9057 80.6843 20.22C80.4644 19.6337 80.2445 19.0474 79.9514 18.4611C79.9514 18.3878 79.4383 18.2412 79.2185 18.2412C79.1452 18.2412 78.7787 18.4611 78.7787 18.6077ZM77.6794 37.37C77.6794 37.4433 77.6794 37.4433 77.7527 37.4433C77.7527 37.4433 77.7527 37.4433 77.6794 37.37Z" fill="white"/>
<path d="M127.81 38.2498C126.638 38.2498 125.465 38.3231 124.292 38.2498C123.413 38.1765 122.533 37.9566 121.654 37.8833C120.701 37.7367 119.822 37.5901 118.942 37.2237C116.67 36.2709 114.911 34.9517 113.739 32.753C113.006 31.2872 112.419 29.8214 112.346 28.209C112.273 27.1096 111.98 25.937 111.98 24.8376C111.98 22.419 112.346 20.0737 113.299 17.8017C114.178 15.7496 115.571 13.9906 117.77 12.9645C119.675 12.0851 121.581 11.6453 123.706 11.572C125.612 11.572 127.591 11.4254 129.496 11.4254C130.889 11.4254 132.354 11.4987 133.674 11.7919C136.825 12.5248 139.39 14.1372 140.416 17.362C140.709 18.1682 140.563 19.121 140.563 20.0737C140.49 20.5868 140.05 20.8799 139.464 20.8799C138.584 20.8799 137.705 20.8799 136.825 20.8799C135.799 20.8799 135.286 20.2936 134.846 19.5607C134.48 18.9744 134.187 18.2415 133.747 17.7284C132.648 16.3359 131.035 15.8228 129.349 15.8228C127.151 15.8228 125.025 15.8229 122.9 16.0428C121.434 16.1893 120.335 17.1421 119.529 18.388C118.576 19.8538 118.283 21.5395 118.209 23.2252C118.063 25.2773 118.136 27.2562 118.649 29.3083C119.089 31.1406 120.042 32.4598 121.654 33.4126C121.801 33.4859 122.46 33.6325 122.68 33.7057C123.12 33.9256 126.198 33.8523 127.957 33.9256C129.056 33.9989 130.156 33.9256 131.182 33.779C133.014 33.4859 134.26 32.3132 134.993 30.7009C135.726 29.3083 136.679 28.5021 138.291 28.722C138.804 28.7953 139.317 28.7953 139.757 28.8686C140.49 28.9419 141.003 29.3816 141.003 30.1878C141.149 32.3132 140.416 34.0722 138.877 35.538C138.071 36.2709 137.118 36.7106 136.165 37.2237C133.893 38.323 131.548 38.3963 129.203 38.323C128.69 38.2498 128.25 38.3231 127.81 38.2498Z" fill="white"/>
<path d="M168.999 24.4713C168.999 28.429 168.999 32.3867 168.999 36.271C168.999 37.7369 169.073 38.2499 167.167 38.2499C165.994 38.3232 164.822 38.3232 163.649 38.2499C162.77 38.2499 162.403 37.7369 162.33 36.9307C162.33 36.6375 162.33 28.5755 162.33 24.7644C162.33 23.0787 162.403 18.608 162.403 18.4615C162.403 18.2416 162.33 17.6553 162.183 17.5087C162.183 17.5087 160.131 18.7546 159.765 19.0478C159.032 19.6341 158.665 19.6341 158.079 18.9012C157.786 18.5347 157.419 18.1683 157.126 17.7286C156.687 17.0689 156.613 16.7758 157.2 16.2628C158.812 14.7969 160.424 13.2578 162.257 11.8653C162.843 11.4256 163.869 11.4256 164.675 11.3523C165.848 11.2057 167.021 11.2057 168.12 11.2057C168.486 11.2057 168.999 11.7187 168.999 12.1585C168.999 16.336 168.999 20.4403 168.999 24.4713Z" fill="white"/>
<path d="M147.599 26.1569C147.599 24.7643 148.552 23.7383 150.017 23.7383C151.703 23.7383 152.656 24.691 152.729 26.3767C152.802 27.4761 151.776 28.7953 150.091 28.7953C148.698 28.7953 147.672 27.6227 147.599 26.1569Z" fill="white"/>
<path d="M73.1548 44.1797H74.1108L76.1572 50.5552L78.1982 44.1797H79.1543L76.5278 52H75.7759L73.1548 44.1797ZM72.8433 44.1797H73.6812L73.8262 48.9492V52H72.8433V44.1797ZM78.6226 44.1797H79.4604V52H78.4775V48.9492L78.6226 44.1797Z" fill="white"/>
<path d="M83.7896 44.8726L81.6519 52H80.6421L83.1611 44.1797H83.7949L83.7896 44.8726ZM85.519 52L83.3813 44.8726L83.3706 44.1797H84.0098L86.5288 52H85.519ZM85.519 49.105V49.9536H81.7485V49.105H85.519Z" fill="white"/>
<path d="M91.7173 44.1797V45.0283H88.645V52H87.6567V44.1797H91.7173Z" fill="white"/>
<path d="M94.0054 50.2061L97.0508 44.1797H98.0391V52H97.0508V45.9683L94.0054 52H93.0225V44.1797H94.0054V50.2061Z" fill="white"/>
<path d="M103.711 49.5132H104.699C104.674 50.0503 104.565 50.514 104.372 50.9043C104.182 51.291 103.904 51.5882 103.539 51.7959C103.177 52.0036 102.724 52.1074 102.18 52.1074C101.79 52.1074 101.437 52.0304 101.122 51.8765C100.807 51.7225 100.537 51.5023 100.311 51.2158C100.089 50.9258 99.9189 50.5785 99.8008 50.1738C99.6826 49.7692 99.6235 49.3145 99.6235 48.8096V47.3647C99.6235 46.8634 99.6826 46.4105 99.8008 46.0059C99.9225 45.6012 100.096 45.2557 100.322 44.9692C100.551 44.6792 100.828 44.4572 101.154 44.3032C101.484 44.1493 101.856 44.0723 102.271 44.0723C102.78 44.0723 103.21 44.1743 103.561 44.3784C103.915 44.5789 104.187 44.8743 104.377 45.2646C104.57 45.6514 104.678 46.1258 104.699 46.688H103.711C103.686 46.2762 103.621 45.9414 103.518 45.6836C103.414 45.4222 103.26 45.2306 103.056 45.1089C102.855 44.9836 102.594 44.9209 102.271 44.9209C101.985 44.9209 101.736 44.9782 101.525 45.0928C101.317 45.2074 101.145 45.3721 101.009 45.5869C100.877 45.7982 100.777 46.0542 100.708 46.355C100.644 46.6522 100.612 46.9852 100.612 47.354V48.8096C100.612 49.1533 100.639 49.4738 100.692 49.771C100.75 50.0682 100.839 50.3296 100.961 50.5552C101.086 50.7772 101.249 50.9508 101.45 51.0762C101.65 51.2015 101.894 51.2642 102.18 51.2642C102.542 51.2642 102.828 51.2051 103.04 51.0869C103.251 50.9688 103.407 50.7808 103.507 50.5229C103.611 50.2651 103.679 49.9285 103.711 49.5132Z" fill="white"/>
<path d="M108.389 44.1797V52H107.412V44.1797H108.389ZM110.446 44.1797V45.0283H105.36V44.1797H110.446Z" fill="white"/>
<path d="M114.093 48.9331H112.385V48.0898H114.093C114.416 48.0898 114.675 48.0254 114.872 47.8965C115.073 47.7676 115.218 47.5885 115.307 47.3594C115.4 47.1302 115.447 46.8688 115.447 46.5752C115.447 46.3066 115.4 46.0542 115.307 45.8179C115.218 45.5815 115.073 45.3918 114.872 45.2485C114.675 45.1017 114.416 45.0283 114.093 45.0283H112.589V52H111.601V44.1797H114.093C114.598 44.1797 115.024 44.2817 115.372 44.4858C115.719 44.6899 115.982 44.9728 116.161 45.3345C116.344 45.6925 116.435 46.1025 116.435 46.5645C116.435 47.0658 116.344 47.4937 116.161 47.8481C115.982 48.2026 115.719 48.473 115.372 48.6592C115.024 48.8418 114.598 48.9331 114.093 48.9331Z" fill="white"/>
<path d="M119.497 44.8726L117.359 52H116.349L118.868 44.1797H119.502L119.497 44.8726ZM121.226 52L119.088 44.8726L119.078 44.1797H119.717L122.236 52H121.226ZM121.226 49.105V49.9536H117.456V49.105H121.226Z" fill="white"/>
<path d="M127.569 44.1797V45.0283H124.647V44.1797H127.569ZM128.439 44.1797V52H127.451V44.1797H128.439ZM124.314 44.1797H125.297L125.158 48.0093C125.14 48.5607 125.106 49.0531 125.056 49.4863C125.006 49.916 124.934 50.2902 124.841 50.6089C124.748 50.924 124.626 51.1854 124.476 51.3931C124.325 51.5972 124.141 51.7493 123.922 51.8496C123.708 51.9499 123.451 52 123.154 52H122.896V51.1567L123.084 51.1406C123.249 51.1263 123.391 51.0815 123.509 51.0063C123.631 50.9276 123.731 50.8094 123.81 50.6519C123.892 50.4943 123.958 50.2902 124.008 50.0396C124.062 49.7889 124.103 49.4827 124.132 49.1211C124.16 48.7559 124.182 48.3298 124.196 47.8428L124.314 44.1797Z" fill="white"/>
<path d="M130.937 47.3647H132.715C133.198 47.3647 133.606 47.4614 133.939 47.6548C134.276 47.8446 134.53 48.1113 134.702 48.4551C134.878 48.7988 134.965 49.2017 134.965 49.6636C134.965 50.0073 134.915 50.3224 134.815 50.6089C134.718 50.8918 134.573 51.1388 134.38 51.3501C134.19 51.5578 133.956 51.7189 133.676 51.8335C133.397 51.9445 133.076 52 132.715 52H130.158V44.1797H131.146V51.1567H132.715C133.016 51.1567 133.257 51.0869 133.44 50.9473C133.626 50.804 133.762 50.6178 133.848 50.3887C133.934 50.1595 133.977 49.9142 133.977 49.6528C133.977 49.3914 133.934 49.1515 133.848 48.9331C133.762 48.7147 133.626 48.541 133.44 48.4121C133.257 48.2796 133.016 48.2134 132.715 48.2134H130.937V47.3647Z" fill="white"/>
<path d="M140.17 49.5132H141.158C141.133 50.0503 141.024 50.514 140.831 50.9043C140.641 51.291 140.363 51.5882 139.998 51.7959C139.636 52.0036 139.183 52.1074 138.639 52.1074C138.249 52.1074 137.896 52.0304 137.581 51.8765C137.266 51.7225 136.996 51.5023 136.77 51.2158C136.548 50.9258 136.378 50.5785 136.26 50.1738C136.142 49.7692 136.083 49.3145 136.083 48.8096V47.3647C136.083 46.8634 136.142 46.4105 136.26 46.0059C136.382 45.6012 136.555 45.2557 136.781 44.9692C137.01 44.6792 137.287 44.4572 137.613 44.3032C137.943 44.1493 138.315 44.0723 138.73 44.0723C139.239 44.0723 139.669 44.1743 140.02 44.3784C140.374 44.5789 140.646 44.8743 140.836 45.2646C141.029 45.6514 141.137 46.1258 141.158 46.688H140.17C140.145 46.2762 140.08 45.9414 139.977 45.6836C139.873 45.4222 139.719 45.2306 139.515 45.1089C139.314 44.9836 139.053 44.9209 138.73 44.9209C138.444 44.9209 138.195 44.9782 137.984 45.0928C137.776 45.2074 137.604 45.3721 137.468 45.5869C137.336 45.7982 137.236 46.0542 137.167 46.355C137.103 46.6522 137.071 46.9852 137.071 47.354V48.8096C137.071 49.1533 137.098 49.4738 137.151 49.771C137.209 50.0682 137.298 50.3296 137.42 50.5552C137.545 50.7772 137.708 50.9508 137.909 51.0762C138.109 51.2015 138.353 51.2642 138.639 51.2642C139.001 51.2642 139.287 51.2051 139.499 51.0869C139.71 50.9688 139.866 50.7808 139.966 50.5229C140.07 50.2651 140.138 49.9285 140.17 49.5132Z" fill="white"/>
<path d="M144.848 44.1797V52H143.871V44.1797H144.848ZM146.905 44.1797V45.0283H141.819V44.1797H146.905Z" fill="white"/>
<path d="M150.552 48.9331H148.844V48.0898H150.552C150.875 48.0898 151.134 48.0254 151.331 47.8965C151.532 47.7676 151.677 47.5885 151.766 47.3594C151.859 47.1302 151.906 46.8688 151.906 46.5752C151.906 46.3066 151.859 46.0542 151.766 45.8179C151.677 45.5815 151.532 45.3918 151.331 45.2485C151.134 45.1017 150.875 45.0283 150.552 45.0283H149.048V52H148.06V44.1797H150.552C151.057 44.1797 151.483 44.2817 151.831 44.4858C152.178 44.6899 152.441 44.9728 152.62 45.3345C152.803 45.6925 152.894 46.1025 152.894 46.5645C152.894 47.0658 152.803 47.4937 152.62 47.8481C152.441 48.2026 152.178 48.473 151.831 48.6592C151.483 48.8418 151.057 48.9331 150.552 48.9331Z" fill="white"/>
<path d="M159.248 47.4131V48.772C159.248 49.3234 159.187 49.8086 159.065 50.2275C158.947 50.6429 158.774 50.9902 158.544 51.2695C158.315 51.5488 158.04 51.7583 157.717 51.8979C157.395 52.0376 157.032 52.1074 156.627 52.1074C156.237 52.1074 155.88 52.0376 155.558 51.8979C155.236 51.7583 154.958 51.5488 154.726 51.2695C154.493 50.9902 154.312 50.6429 154.183 50.2275C154.058 49.8086 153.995 49.3234 153.995 48.772V47.4131C153.995 46.8617 154.058 46.3783 154.183 45.9629C154.308 45.5439 154.487 45.1948 154.72 44.9155C154.953 44.6362 155.23 44.4268 155.553 44.2871C155.875 44.1439 156.231 44.0723 156.622 44.0723C157.026 44.0723 157.39 44.1439 157.712 44.2871C158.038 44.4268 158.313 44.6362 158.539 44.9155C158.768 45.1948 158.944 45.5439 159.065 45.9629C159.187 46.3783 159.248 46.8617 159.248 47.4131ZM158.271 48.772V47.4023C158.271 46.9727 158.235 46.6038 158.163 46.2959C158.091 45.9844 157.986 45.7301 157.846 45.5332C157.707 45.3363 157.535 45.1912 157.331 45.0981C157.126 45.0015 156.89 44.9531 156.622 44.9531C156.367 44.9531 156.138 45.0015 155.934 45.0981C155.734 45.1912 155.562 45.3363 155.418 45.5332C155.275 45.7301 155.164 45.9844 155.085 46.2959C155.01 46.6038 154.973 46.9727 154.973 47.4023V48.772C154.973 49.2052 155.01 49.5776 155.085 49.8892C155.164 50.1971 155.275 50.4513 155.418 50.6519C155.565 50.8488 155.741 50.9956 155.945 51.0923C156.149 51.1854 156.376 51.2319 156.627 51.2319C156.896 51.2319 157.132 51.1854 157.336 51.0923C157.544 50.9956 157.715 50.8488 157.852 50.6519C157.991 50.4513 158.095 50.1971 158.163 49.8892C158.235 49.5776 158.271 49.2052 158.271 48.772Z" fill="white"/>
<path d="M161.81 50.2061L164.855 44.1797H165.844V52H164.855V45.9683L161.81 52H160.827V44.1797H161.81V50.2061ZM164.152 42.2407H164.958C164.958 42.52 164.893 42.7689 164.764 42.9873C164.635 43.2021 164.451 43.3704 164.211 43.4922C163.971 43.6139 163.686 43.6748 163.357 43.6748C162.859 43.6748 162.465 43.5423 162.175 43.2773C161.889 43.0088 161.746 42.6632 161.746 42.2407H162.551C162.551 42.452 162.612 42.6382 162.734 42.7993C162.856 42.9604 163.063 43.041 163.357 43.041C163.643 43.041 163.847 42.9604 163.969 42.7993C164.091 42.6382 164.152 42.452 164.152 42.2407Z" fill="white"/>
<path d="M169.233 48.2671V49.0835H167.015V48.2671H169.233Z" fill="white"/>
<path d="M172.944 44.1367V52H171.994V45.3774L170.35 46.1079V45.2109L172.799 44.1367H172.944Z" fill="white"/>
</svg>
