<svg width="332" height="321" viewBox="0 0 332 321" fill="none" xmlns="http://www.w3.org/2000/svg">
<path d="M191.802 0.521423L175.645 49.984C151.203 56.7366 128.851 68.4973 109.758 84.1331L121.228 59.1586L101.068 48.1725C94.3899 44.54 86.1245 45.7401 80.7579 51.1245L43.5031 88.4269L67.0448 134.954C54.9986 156.207 47.044 180.089 44.4909 205.601L34.9972 179.888L12.996 186.413C5.70909 188.568 0.706055 195.275 0.706055 202.883V255.65L50.0834 271.836C56.8244 296.319 68.5648 318.71 84.1736 337.836L59.2422 326.347L48.275 346.541C44.6487 353.231 45.8468 361.511 51.2219 366.886L88.46 404.206L134.907 380.623C156.123 392.69 179.964 400.658 205.432 403.216L179.764 412.726L186.277 434.765C188.429 442.065 195.124 447.076 202.719 447.076H255.395L271.553 397.614C295.994 390.861 318.347 379.101 337.44 363.465L325.97 388.439L346.13 399.425C352.808 403.058 361.073 401.858 366.44 396.473L403.695 359.171L380.153 312.644C392.199 291.391 400.154 267.509 402.707 241.997L412.2 267.71L434.202 261.185C441.488 259.03 446.492 252.323 446.492 244.714V191.948L397.114 175.762C390.373 151.278 378.633 128.887 363.024 109.762L387.955 121.251L398.923 101.057C402.549 94.3669 401.351 86.0873 395.976 80.7115L358.738 43.3923L312.29 66.9747C291.075 54.9077 267.234 46.9394 241.766 44.3819L267.434 34.8718L260.921 12.8325C258.769 5.53309 252.074 0.521423 244.478 0.521423H191.802ZM223.599 86.3974C299.357 86.3974 360.764 147.91 360.764 223.799C360.764 299.679 299.357 361.2 223.599 361.2C147.841 361.2 86.434 299.679 86.434 223.799C86.434 147.91 147.841 86.3974 223.599 86.3974ZM223.599 120.748C166.787 120.748 120.725 166.889 120.725 223.799C120.725 280.709 166.787 326.85 223.599 326.85C280.411 326.85 326.472 280.709 326.472 223.799C326.472 166.889 280.411 120.748 223.599 120.748ZM223.599 189.449C242.536 189.449 257.89 204.829 257.89 223.799C257.89 242.769 242.536 258.149 223.599 258.149C204.661 258.149 189.308 242.769 189.308 223.799C189.308 204.829 204.661 189.449 223.599 189.449Z" fill="white"/>
</svg>
