<svg width="408" height="394" viewBox="0 0 408 394" fill="none" xmlns="http://www.w3.org/2000/svg">
<path d="M235.342 0L215.443 60.8098C185.343 69.1116 157.815 83.5703 134.301 102.793L148.426 72.0892L123.599 58.5828C115.375 54.1169 105.196 55.5924 98.5866 62.212L52.706 108.072L81.6984 165.273C66.8631 191.401 57.0668 220.762 53.9226 252.127L42.2308 220.516L15.1354 228.537C6.1614 231.187 0 239.432 0 248.786V313.658L60.8098 333.557C69.1116 363.657 83.5703 391.185 102.793 414.699L72.0892 400.574L58.5828 425.401C54.1169 433.625 55.5924 443.804 62.212 450.413L108.072 496.294L165.273 467.302C191.401 482.137 220.762 491.933 252.127 495.077L220.516 506.769L228.537 533.865C231.187 542.839 239.432 549 248.786 549H313.658L333.557 488.19C363.657 479.888 391.185 465.43 414.699 446.207L400.574 476.911L425.401 490.417C433.625 494.883 443.804 493.408 450.413 486.788L496.294 440.928L467.302 383.727C482.137 357.599 491.933 328.238 495.077 296.873L506.769 328.484L533.865 320.463C542.839 317.813 549 309.568 549 300.214V235.342L488.19 215.443C479.888 185.343 465.43 157.815 446.207 134.301L476.911 148.426L490.417 123.599C494.883 115.375 493.408 105.196 486.788 98.5866L440.928 52.706L383.727 81.6984C357.599 66.8631 328.238 57.0668 296.873 53.9226L328.484 42.2308L320.463 15.1354C317.813 6.1614 309.568 0 300.214 0H235.342ZM274.5 105.577C367.798 105.577 443.423 181.202 443.423 274.5C443.423 367.788 367.798 443.423 274.5 443.423C181.202 443.423 105.577 367.788 105.577 274.5C105.577 181.202 181.202 105.577 274.5 105.577ZM274.5 147.808C204.534 147.808 147.808 204.534 147.808 274.5C147.808 344.466 204.534 401.192 274.5 401.192C344.466 401.192 401.192 344.466 401.192 274.5C401.192 204.534 344.466 147.808 274.5 147.808ZM274.5 232.269C297.822 232.269 316.731 251.178 316.731 274.5C316.731 297.822 297.822 316.731 274.5 316.731C251.178 316.731 232.269 297.822 232.269 274.5C232.269 251.178 251.178 232.269 274.5 232.269Z" fill="white"/>
</svg>
